<svg width="37" height="36" viewBox="0 0 37 36" fill="none" xmlns="http://www.w3.org/2000/svg">
<path d="M4.28315 35.3151H21.5265C22.5609 35.3157 23.5832 35.0882 24.5229 34.6484C25.4626 34.2085 26.2975 33.5667 26.9702 32.7671L36.1153 21.9113C36.3068 21.6844 36.4405 21.413 36.5047 21.1211C36.5688 20.8292 36.5614 20.5257 36.4832 20.2374C36.4049 19.9491 36.2581 19.6848 36.0558 19.4678C35.8535 19.2508 35.6019 19.0878 35.3231 18.9931L31.7955 17.7966C30.9429 17.5146 30.0352 17.4508 29.1526 17.6108C28.27 17.7708 27.4398 18.1497 26.7354 18.714L21.0264 23.3595L19.9205 21.107C19.328 19.8927 18.4132 18.8716 17.2797 18.1592C16.1463 17.4468 14.8394 17.0716 13.5071 17.0761H4.28315C2.30607 17.0761 0.698242 18.7122 0.698242 20.7239V31.6673C0.698242 33.6791 2.30607 35.3151 4.28315 35.3151ZM4.28315 20.7239H13.5071C14.8748 20.7239 16.1026 21.4954 16.7138 22.7393L17.515 24.3717H9.66051V28.0195H20.4403C20.7161 28.0158 20.9873 27.9472 21.2326 27.8189L21.238 27.8171L21.2451 27.8134H21.2505L21.2541 27.8116H21.2613L21.2631 27.8098C21.2828 27.8153 21.2684 27.808 21.2684 27.808C21.2899 27.808 21.272 27.8061 21.272 27.8061H21.2738L21.2774 27.8043L21.2828 27.8025L21.2864 27.8007L21.2899 27.7988L21.2953 27.797L21.2989 27.7952L21.3025 27.7934L21.3079 27.7897L21.3114 27.7879L21.315 27.7861L21.3204 27.7843L21.324 27.7824H21.3258L21.3294 27.7806H21.3312L21.3347 27.7788L21.3383 27.777C21.3581 27.7751 21.3437 27.7751 21.3437 27.7751L21.3473 27.7733C21.4164 27.7309 21.4823 27.6833 21.5445 27.631L28.976 21.5812C29.4438 21.2018 30.0927 21.0832 30.6609 21.2766L31.6593 21.6158L24.2511 30.4125C23.9103 30.8062 23.4912 31.1217 23.0214 31.3381C22.5517 31.5544 22.0421 31.6666 21.5265 31.6673H4.28315V20.7239ZM21.7793 1.25564C20.953 2.17853 16.8303 6.96627 16.8303 10.6925C16.8303 14.2126 19.6445 17.0761 23.1039 17.0761C26.5633 17.0761 29.3775 14.2126 29.3775 10.6925C29.3775 6.96627 25.2548 2.17853 24.4285 1.25564C23.7492 0.496899 22.4586 0.496899 21.7793 1.25564ZM25.7926 10.6925C25.7926 12.2009 24.5863 13.4283 23.1039 13.4283C21.6215 13.4283 20.4152 12.2009 20.4152 10.6925C20.4152 9.40117 21.7381 7.16507 23.1039 5.34118C24.4697 7.16507 25.7926 9.40117 25.7926 10.6925Z" fill="#EFA937"/>
</svg>
