<svg width="36" height="34" viewBox="0 0 36 34" fill="none" xmlns="http://www.w3.org/2000/svg">
<g clip-path="url(#clip0_1708_21751)">
<path d="M17.9266 16.6279C14.0446 16.6279 13.0533 20.246 9.46223 23.4696C4.19238 28.1975 5.06536 32.4411 8.19273 33.397C11.3201 34.356 14.0989 30.8598 17.5141 31.0202C17.5237 31.0202 17.5365 31.0202 17.5461 31.0202C17.5557 31.0202 17.5685 31.0202 17.5781 31.0202C20.9996 31.0426 23.5866 34.68 26.7619 33.8877C29.9373 33.0955 31.0309 28.9064 26.0201 23.9059C22.6049 20.4994 21.8055 16.8332 17.9266 16.6279Z" fill="#EFA937"/>
<path d="M8.87536 21.3762C10.8137 20.0392 10.7092 16.5106 8.64184 13.4949C6.5745 10.4792 3.32724 9.11825 1.38887 10.4552C-0.549494 11.7922 -0.444942 15.3207 1.62239 18.3365C3.68973 21.3522 6.93699 22.7131 8.87536 21.3762Z" fill="#EFA937"/>
<path d="M34.1218 19.199C36.3453 16.2971 36.6358 12.7789 34.7706 11.341C32.9054 9.90301 29.5908 11.0898 27.3673 13.9917C25.1438 16.8936 24.8534 20.4118 26.7186 21.8497C28.5838 23.2877 31.8983 22.1009 34.1218 19.199Z" fill="#EFA937"/>
<path d="M13.792 13.8556C16.2455 13.4843 17.769 10.0891 17.1948 6.27225C16.6207 2.45543 14.1663 -0.337679 11.7127 0.0336693C9.25923 0.405017 7.73571 3.8002 8.30987 7.61702C8.88402 11.4338 11.3384 14.2269 13.792 13.8556Z" fill="#EFA937"/>
<path d="M28.0068 8.13929C28.7814 4.35837 27.4391 0.887168 25.0087 0.386147C22.5783 -0.114874 19.98 2.54401 19.2054 6.32493C18.4307 10.1059 19.773 13.5771 22.2034 14.0781C24.6339 14.5791 27.2321 11.9202 28.0068 8.13929Z" fill="#EFA937"/>
</g>
<defs>
<clipPath id="clip0_1708_21751">
<rect width="36" height="34" fill="white"/>
</clipPath>
</defs>
</svg>
