<svg width="24" height="24" viewBox="0 0 24 24" fill="none" xmlns="http://www.w3.org/2000/svg">
<path d="M2.04995 15.279L2.07495 15.447L2.10095 15.441C2.27864 16.272 2.68798 17.0356 3.28161 17.6436C3.87523 18.2517 4.62888 18.6792 5.45535 18.8767C6.28182 19.0743 7.14733 19.0338 7.95174 18.7599C8.75615 18.486 9.46658 17.99 10.0008 17.3292C10.5351 16.6684 10.8713 15.8698 10.9706 15.0259C11.0699 14.182 10.9283 13.3272 10.562 12.5604C10.1958 11.7937 9.61989 11.1463 8.90102 10.6931C8.18216 10.24 7.3497 9.99971 6.49995 10C6.27695 10 6.06295 10.034 5.84995 10.065C5.91895 9.833 5.98995 9.597 6.10395 9.385C6.21795 9.077 6.39595 8.81 6.57295 8.541C6.72095 8.25 6.98195 8.053 7.17395 7.804C7.37495 7.562 7.64895 7.401 7.86595 7.2C8.07895 6.99 8.35795 6.885 8.57995 6.737C8.81195 6.604 9.01395 6.457 9.22995 6.387L9.76895 6.165L10.2429 5.968L9.75895 4.029L9.16195 4.173C8.97095 4.221 8.73795 4.277 8.47295 4.344C8.20195 4.394 7.91295 4.531 7.59095 4.656C7.27395 4.799 6.90495 4.894 6.56295 5.123C6.21895 5.341 5.82195 5.523 5.47195 5.815C5.13295 6.116 4.72395 6.377 4.42195 6.759C4.09195 7.117 3.76595 7.493 3.51295 7.921C3.21995 8.329 3.02095 8.777 2.81095 9.22C2.62095 9.663 2.46795 10.116 2.34295 10.556C2.10595 11.438 1.99995 12.276 1.95895 12.993C1.92495 13.711 1.94495 14.308 1.98695 14.74C2.001 14.9204 2.02202 15.1002 2.04995 15.279ZM13.0499 15.279L13.0749 15.447L13.1009 15.441C13.2786 16.272 13.688 17.0356 14.2816 17.6436C14.8752 18.2517 15.6289 18.6792 16.4554 18.8767C17.2818 19.0743 18.1473 19.0338 18.9517 18.7599C19.7562 18.486 20.4666 17.99 21.0008 17.3292C21.5351 16.6684 21.8713 15.8699 21.9706 15.0259C22.0699 14.182 21.9283 13.3272 21.562 12.5604C21.1958 11.7937 20.6199 11.1463 19.901 10.6932C19.1822 10.24 18.3497 9.99971 17.4999 10C17.2769 10 17.0629 10.034 16.8499 10.065C16.9189 9.833 16.99 9.597 17.1039 9.385C17.2179 9.077 17.3959 8.81 17.5729 8.541C17.721 8.25 17.9819 8.053 18.1739 7.804C18.3749 7.562 18.6489 7.401 18.8659 7.2C19.079 6.99 19.3579 6.885 19.5799 6.737C19.8119 6.604 20.0139 6.457 20.2299 6.387L20.7689 6.165C21.0699 6.042 21.2419 5.97 21.2419 5.97L20.7579 4.031L20.161 4.175C19.97 4.223 19.737 4.279 19.472 4.346C19.201 4.396 18.912 4.533 18.59 4.658C18.273 4.801 17.904 4.896 17.5619 5.125C17.218 5.343 16.821 5.525 16.471 5.817C16.132 6.118 15.7229 6.379 15.4209 6.761C15.0909 7.119 14.7649 7.495 14.512 7.923C14.2189 8.331 14.0199 8.779 13.8099 9.222C13.62 9.665 13.4669 10.118 13.3419 10.558C13.1049 11.44 12.9989 12.278 12.9579 12.995C12.9239 13.713 12.9439 14.31 12.9859 14.742C13.0009 14.9217 13.0222 15.1008 13.0499 15.279Z" fill="#789577"/>
</svg>
