<svg width="40" height="40" viewBox="0 0 40 40" fill="none" xmlns="http://www.w3.org/2000/svg">
<path fill-rule="evenodd" clip-rule="evenodd" d="M20 40C31.0457 40 40 31.0457 40 20C40 8.9543 31.0457 0 20 0C8.9543 0 0 8.9543 0 20C0 31.0457 8.9543 40 20 40ZM27.7688 17.8617C27.688 17.8306 27.6018 17.8162 27.5154 17.8192L25.7255 17.8199V16.6716H27.5161C27.6815 16.6641 27.8376 16.5932 27.9521 16.4737C28.0666 16.3541 28.1308 16.1952 28.1313 16.0296C28.1318 15.8641 28.0686 15.7047 27.9548 15.5845C27.841 15.4643 27.6853 15.3925 27.52 15.384H25.0832C24.7296 15.384 24.4425 15.6749 24.4425 16.0293V20.8982C24.4427 21.0682 24.5102 21.2312 24.6303 21.3516C24.7504 21.472 24.9132 21.5399 25.0832 21.5405H27.5154C27.6024 21.5447 27.6893 21.5313 27.7709 21.5009C27.8526 21.4705 27.9272 21.4239 27.9902 21.3638C28.0533 21.3038 28.1035 21.2315 28.1378 21.1515C28.1721 21.0715 28.1898 20.9853 28.1898 20.8982C28.1898 20.8111 28.1721 20.7249 28.1378 20.6449C28.1035 20.5648 28.0533 20.4926 27.9902 20.4325C27.9272 20.3725 27.8526 20.3258 27.7709 20.2955C27.6893 20.2651 27.6024 20.2516 27.5154 20.2559H25.7248V19.1076H27.5154C27.6018 19.1106 27.688 19.0961 27.7688 19.0651C27.8495 19.034 27.9232 18.9871 27.9855 18.927C28.0477 18.8668 28.0972 18.7948 28.131 18.7152C28.1648 18.6355 28.1822 18.5499 28.1822 18.4634C28.1822 18.3769 28.1648 18.2912 28.131 18.2116C28.0972 18.1319 28.0477 18.0599 27.9855 17.9998C27.9232 17.9397 27.8495 17.8927 27.7688 17.8617ZM23.394 21.3511C23.515 21.231 23.5837 21.0679 23.5851 20.8974L23.5835 16.0278C23.5835 15.6734 23.2926 15.3824 22.9374 15.3824C22.5822 15.3824 22.2951 15.6734 22.2951 16.0278V19.0417L19.7834 15.645C19.6601 15.4935 19.4764 15.3855 19.2774 15.3855C19.2096 15.3847 19.1422 15.3959 19.0783 15.4184C18.8196 15.5065 18.6397 15.753 18.6397 16.0278V20.8966C18.6397 21.067 18.7073 21.2304 18.8278 21.3508C18.9482 21.4713 19.1116 21.5389 19.282 21.5389C19.4523 21.5389 19.6157 21.4713 19.7361 21.3508C19.8566 21.2304 19.9243 21.067 19.9243 20.8966V17.895L22.4161 21.284C22.4775 21.3642 22.5567 21.4289 22.6475 21.4732C22.7382 21.5174 22.838 21.5399 22.939 21.5389C23.1095 21.5387 23.273 21.4712 23.394 21.3511ZM17.5337 21.352C17.6548 21.2317 17.7233 21.0682 17.7241 20.8974L17.7249 16.0286C17.7249 15.6741 17.437 15.3832 17.0826 15.3832C16.7274 15.3832 16.4403 15.6741 16.4403 16.0286V20.8974C16.4405 21.0669 16.5076 21.2295 16.627 21.3497C16.7464 21.47 16.9085 21.5383 17.078 21.5397C17.2487 21.5399 17.4126 21.4724 17.5337 21.352ZM12.771 21.5397H15.2077C15.3781 21.5397 15.5415 21.472 15.6619 21.3516C15.7824 21.2311 15.85 21.0678 15.85 20.8974C15.85 20.7271 15.7824 20.5637 15.6619 20.4432C15.5415 20.3228 15.3781 20.2551 15.2077 20.2551H13.4133V16.0286C13.4133 15.6741 13.1262 15.3832 12.771 15.3832C12.4158 15.3832 12.1249 15.6741 12.1249 16.0286V20.8974C12.1263 21.068 12.195 21.2311 12.3159 21.3514C12.4369 21.4716 12.6004 21.5393 12.771 21.5397ZM20 8.33333C26.7498 8.33333 32.2487 12.7949 32.2487 18.277C32.2487 20.4664 31.4074 22.4446 29.6489 24.3699C27.0775 27.3295 21.3359 30.9413 20.0161 31.4918C18.7528 32.0202 18.8857 31.2102 18.941 30.873C18.9433 30.8589 18.9455 30.8457 18.9474 30.8334L19.1151 29.793C19.1549 29.4692 19.1985 28.9946 19.0753 28.6883C18.9352 28.3492 18.3932 28.1693 17.9943 28.0859C12.1096 27.3042 7.75136 23.1894 7.75136 18.277C7.75136 12.7949 13.2503 8.33333 20 8.33333Z" fill="white"/>
</svg>
