<?xml version="1.0" encoding="utf-8"?>
<!-- Generator: Adobe Illustrator 24.3.0, SVG Export Plug-In . SVG Version: 6.00 Build 0)  -->
<svg version="1.1" id="圖層_1" xmlns="http://www.w3.org/2000/svg" xmlns:xlink="http://www.w3.org/1999/xlink" x="0px" y="0px"
	 viewBox="0 0 40 40" style="enable-background:new 0 0 40 40;" xml:space="preserve">
<style type="text/css">
	.st0{fill-rule:evenodd;clip-rule:evenodd;fill:#789577;}
</style>
<path class="st0" d="M20,40c11,0,20-9,20-20S31,0,20,0S0,9,0,20S9,40,20,40z M27.8,17.9c-0.1,0-0.2,0-0.3,0l-1.8,0v-1.1h1.8
	c0.2,0,0.3-0.1,0.4-0.2c0.1-0.1,0.2-0.3,0.2-0.4c0-0.2-0.1-0.3-0.2-0.4s-0.3-0.2-0.4-0.2h-2.4c-0.4,0-0.6,0.3-0.6,0.6v4.9
	c0,0.2,0.1,0.3,0.2,0.5c0.1,0.1,0.3,0.2,0.5,0.2h2.4c0.1,0,0.2,0,0.3,0c0.1,0,0.2-0.1,0.2-0.1c0.1-0.1,0.1-0.1,0.1-0.2
	s0.1-0.2,0.1-0.3c0-0.1,0-0.2-0.1-0.3c0-0.1-0.1-0.2-0.1-0.2c-0.1-0.1-0.1-0.1-0.2-0.1c-0.1,0-0.2,0-0.3,0h-1.8v-1.1h1.8
	c0.1,0,0.2,0,0.3,0c0.1,0,0.2-0.1,0.2-0.1c0.1-0.1,0.1-0.1,0.1-0.2c0-0.1,0.1-0.2,0.1-0.3s0-0.2-0.1-0.3c0-0.1-0.1-0.2-0.1-0.2
	C27.9,17.9,27.8,17.9,27.8,17.9z M23.4,21.4c0.1-0.1,0.2-0.3,0.2-0.5l0-4.9c0-0.4-0.3-0.6-0.6-0.6c-0.4,0-0.6,0.3-0.6,0.6v3
	l-2.5-3.4c-0.1-0.2-0.3-0.3-0.5-0.3c-0.1,0-0.1,0-0.2,0c-0.3,0.1-0.4,0.3-0.4,0.6v4.9c0,0.2,0.1,0.3,0.2,0.5
	c0.1,0.1,0.3,0.2,0.5,0.2c0.2,0,0.3-0.1,0.5-0.2c0.1-0.1,0.2-0.3,0.2-0.5v-3l2.5,3.4c0.1,0.1,0.1,0.1,0.2,0.2c0.1,0,0.2,0.1,0.3,0.1
	C23.1,21.5,23.3,21.5,23.4,21.4z M17.5,21.4c0.1-0.1,0.2-0.3,0.2-0.5l0-4.9c0-0.4-0.3-0.6-0.6-0.6c-0.4,0-0.6,0.3-0.6,0.6v4.9
	c0,0.2,0.1,0.3,0.2,0.5c0.1,0.1,0.3,0.2,0.5,0.2C17.2,21.5,17.4,21.5,17.5,21.4z M12.8,21.5h2.4c0.2,0,0.3-0.1,0.5-0.2
	c0.1-0.1,0.2-0.3,0.2-0.5c0-0.2-0.1-0.3-0.2-0.5c-0.1-0.1-0.3-0.2-0.5-0.2h-1.8V16c0-0.4-0.3-0.6-0.6-0.6s-0.6,0.3-0.6,0.6v4.9
	c0,0.2,0.1,0.3,0.2,0.5C12.4,21.5,12.6,21.5,12.8,21.5z M20,8.3c6.7,0,12.2,4.5,12.2,9.9c0,2.2-0.8,4.2-2.6,6.1
	c-2.6,3-8.3,6.6-9.6,7.1c-1.3,0.5-1.1-0.3-1.1-0.6c0,0,0,0,0,0l0.2-1c0-0.3,0.1-0.8,0-1.1c-0.1-0.3-0.7-0.5-1.1-0.6
	c-5.9-0.8-10.2-4.9-10.2-9.8C7.8,12.8,13.3,8.3,20,8.3z"/>
</svg>
