<?xml version="1.0" encoding="utf-8"?>
<!-- Generator: Adobe Illustrator 24.3.0, SVG Export Plug-In . SVG Version: 6.00 Build 0)  -->
<svg version="1.1" id="圖層_1" xmlns="http://www.w3.org/2000/svg" xmlns:xlink="http://www.w3.org/1999/xlink" x="0px" y="0px"
	 viewBox="0 0 220 49" style="enable-background:new 0 0 220 49;" xml:space="preserve">
<style type="text/css">
	.st0{fill:#769675;}
	.st1{fill:#F2AA24;}
	.st2{opacity:0.5;}
	.st3{fill:#FFFFFF;}
	.st4{fill:#FFE6B9;}
	.st5{opacity:0.25;}
	.st6{fill:#FF67A0;}
	.st7{opacity:0.7;}
</style>
<g>
	<path class="st0" d="M53.3,10.8h2.9c1.1,0,1.7,0.6,1.7,1.8v13.8c0,1.2-0.6,1.8-1.7,1.8h-2.9c-1.2,0-1.7-0.6-1.7-1.8V12.5
		C51.5,11.4,52.1,10.8,53.3,10.8z M55.2,25.6c0.3,0,0.5-0.1,0.5-0.4V13.7c0-0.3-0.2-0.4-0.5-0.4h-0.9c-0.3,0-0.5,0.1-0.5,0.4v11.4
		c0,0.3,0.2,0.4,0.5,0.4H55.2z M59.6,11.3h1.8V10c0-0.3,0.1-0.6,0.2-0.8c0.2-0.2,0.5-0.3,0.9-0.3s0.8,0.1,0.9,0.2
		c0.2,0.2,0.3,0.5,0.3,0.9v1.3h2.9v-1.2c0-0.3,0.1-0.6,0.3-0.8C67.2,9.1,67.5,9,68,9c0.5,0,0.7,0.1,0.8,0.2c0.2,0.2,0.3,0.5,0.3,0.9
		v1.2H71c0.4,0,0.6,0.1,0.8,0.2c0.2,0.1,0.3,0.4,0.3,0.9c0,0.4-0.1,0.6-0.2,0.8c-0.2,0.3-0.5,0.4-0.9,0.4h-1.8V15
		c0,0.4-0.1,0.6-0.3,0.8c-0.2,0.2-0.5,0.3-0.9,0.3c-0.4,0-0.7-0.1-0.9-0.3c-0.2-0.1-0.3-0.4-0.3-0.8v-1.3h-2.9V15
		c0,0.4-0.1,0.6-0.3,0.8c-0.2,0.2-0.5,0.3-0.9,0.3c-0.4,0-0.7-0.1-0.9-0.3c-0.2-0.1-0.3-0.4-0.3-0.8v-1.3h-1.8
		c-0.3,0-0.6-0.1-0.8-0.3s-0.3-0.5-0.3-0.9c0-0.4,0.1-0.7,0.3-0.9C59,11.4,59.3,11.3,59.6,11.3z M60.8,16.8h8.7
		c1.1,0,1.7,0.6,1.7,1.7V28c0,1.1-0.6,1.6-1.7,1.6h-8.7c-1.1,0-1.6-0.5-1.6-1.6v-9.5C59.2,17.3,59.7,16.8,60.8,16.8z M61.6,22.1h2.6
		V19H62c-0.3,0-0.5,0.2-0.5,0.5V22.1z M64.1,27.4v-3.2h-2.6v2.7c0,0.3,0.2,0.4,0.5,0.4H64.1z M66.3,19v3.1h2.4v-2.6
		c0-0.3-0.2-0.5-0.5-0.5H66.3z M68.3,27.4c0.3,0,0.5-0.1,0.5-0.4v-2.7h-2.4v3.2H68.3z"/>
	<path class="st0" d="M75.7,14.7c0.2,0,0.4,0.1,0.6,0.2c0.4,0.3,0.9,0.7,1.4,1.3c1.1,1.4,1.7,2.4,1.7,3.1c0,0.3-0.1,0.6-0.3,0.8
		c-0.2,0.2-0.6,0.3-1.1,0.3c-0.4,0-0.7-0.2-0.9-0.6c-0.7-1.1-1.5-2.1-2.4-3.2c-0.3-0.3-0.4-0.6-0.5-0.8c0-0.4,0.2-0.7,0.5-1
		C75.1,14.8,75.4,14.7,75.7,14.7z M77.7,21.3c0.3,0,0.6,0,0.9,0.1c0.4,0.1,0.5,0.5,0.5,1c0,0.3-0.1,0.7-0.3,1.2
		c-0.2,0.8-0.6,2-1.1,3.7c-0.2,0.6-0.4,1.1-0.6,1.6c-0.3,0.6-0.7,1-1.3,1c-0.4-0.1-0.7-0.2-1-0.4c-0.2-0.2-0.3-0.5-0.3-1
		c0-0.2,0.6-1.9,1.8-5.2c0.2-0.5,0.4-1,0.5-1.3C77,21.6,77.3,21.3,77.7,21.3z M76.8,8.9C77,9,77.2,9,77.4,9.1
		c0.4,0.2,0.8,0.6,1.4,1.2c1.1,1.3,1.6,2.2,1.6,2.8c0,0.3-0.1,0.6-0.3,0.8c-0.2,0.2-0.6,0.3-1.1,0.3c-0.4,0-0.7-0.2-0.9-0.6
		c-0.7-1-1.5-1.9-2.3-2.9c-0.3-0.3-0.4-0.5-0.4-0.7c0-0.4,0.2-0.7,0.5-1C76.2,9,76.5,8.9,76.8,8.9z M82.1,10.2h11.7
		c0.4,0,0.8,0.1,0.9,0.3c0.2,0.2,0.3,0.5,0.3,0.9c0,0.4-0.1,0.6-0.2,0.8c-0.2,0.3-0.5,0.4-1,0.4h-4.7v5.6h4.6c0.4,0,0.7,0.1,0.9,0.2
		c0.2,0.1,0.2,0.4,0.2,0.9c0,0.4-0.1,0.6-0.2,0.8c-0.2,0.2-0.5,0.4-0.9,0.4h-4.6v6.3h5.2c0.4,0,0.7,0.1,0.9,0.3
		c0.2,0.2,0.3,0.5,0.3,0.9c0,0.3-0.1,0.6-0.2,0.8c-0.2,0.3-0.5,0.4-1,0.4H81c-0.4,0-0.7-0.1-0.9-0.3c-0.2-0.2-0.3-0.5-0.3-0.9
		c0-0.4,0.1-0.7,0.3-0.9c0.2-0.2,0.5-0.3,0.9-0.3h5.6v-6.3h-4.4c-0.4,0-0.6-0.1-0.8-0.3c-0.2-0.2-0.3-0.5-0.3-0.9
		c0-0.4,0.1-0.7,0.3-0.9c0.2-0.2,0.5-0.2,0.8-0.2h4.4v-5.6h-4.5c-0.4,0-0.7-0.1-0.9-0.3c-0.2-0.2-0.3-0.5-0.3-0.9
		c0-0.4,0.1-0.7,0.3-0.9C81.4,10.3,81.7,10.2,82.1,10.2z"/>
	<path class="st0" d="M98.8,23h19c0.3,0,0.6,0.1,0.7,0.2c0.1,0.1,0.2,0.3,0.2,0.7c0,0.3-0.1,0.5-0.2,0.7c-0.2,0.2-0.4,0.3-0.7,0.3
		h-3c0.2,0.2,0.5,0.4,0.7,0.6c1.5,1.7,2.3,2.9,2.3,3.6c0,0.3-0.1,0.5-0.3,0.7c-0.2,0.2-0.5,0.3-0.9,0.3c-0.3,0-0.6-0.1-0.8-0.4
		c-0.3-0.4-0.6-0.8-0.8-1.2c-1.7,0.3-3.5,0.5-5.4,0.6c-3.2,0.3-6.5,0.4-10,0.4c-0.4,0-0.7-0.1-0.9-0.2c-0.2-0.2-0.3-0.5-0.3-0.9
		c0-0.3,0.1-0.5,0.2-0.7c0.2-0.2,0.5-0.4,1-0.4c0.8,0,1.5,0,2.3,0l1-2.5h-4c-0.3,0-0.5-0.1-0.7-0.3c-0.2-0.1-0.2-0.4-0.2-0.8
		c0-0.3,0.1-0.6,0.2-0.7C98.3,23.1,98.5,23,98.8,23z M99.3,9.3h18c0.3,0,0.6,0.1,0.7,0.2c0.1,0.1,0.2,0.3,0.2,0.7
		c0,0.3-0.1,0.5-0.2,0.7c-0.2,0.2-0.4,0.3-0.8,0.3h-7.8v1h7.1c1.1,0,1.7,0.5,1.7,1.4v2c0,0.4-0.1,0.7-0.3,0.8
		c-0.2,0.2-0.6,0.3-1,0.3c-0.5,0-0.8-0.1-1-0.3c-0.1-0.2-0.2-0.4-0.2-0.8v-1.5c0-0.1-0.1-0.2-0.4-0.2h-5.9v3.8c0,0.5-0.1,0.8-0.3,1
		c-0.2,0.2-0.6,0.3-1,0.3c-0.4,0-0.8-0.1-1-0.3c-0.2-0.2-0.3-0.5-0.3-1V14H101c-0.2,0-0.3,0.1-0.3,0.2v1.6c0,0.4-0.1,0.7-0.3,0.8
		c-0.2,0.2-0.5,0.3-1,0.3c-0.4,0-0.7-0.1-0.9-0.2c-0.2-0.2-0.3-0.4-0.3-0.9v-2.1c0-1,0.5-1.4,1.6-1.4h7v-1h-7.6
		c-0.3,0-0.6-0.1-0.7-0.3c-0.1-0.1-0.2-0.4-0.2-0.8c0-0.3,0.1-0.6,0.2-0.7C98.7,9.4,99,9.3,99.3,9.3z M100.2,19.8h16.2
		c0.3,0,0.6,0.1,0.7,0.2c0.1,0.1,0.2,0.3,0.2,0.7c0,0.3-0.1,0.5-0.2,0.6c-0.2,0.2-0.4,0.3-0.8,0.3h-16.2c-0.3,0-0.6-0.1-0.7-0.2
		c-0.1-0.1-0.2-0.4-0.2-0.7c0-0.3,0.1-0.5,0.2-0.7C99.6,19.9,99.9,19.8,100.2,19.8z M100.7,17.3h4.7c0.3,0,0.5,0.1,0.6,0.2
		c0.1,0.1,0.2,0.3,0.2,0.5c0,0.2,0,0.4-0.1,0.5c-0.1,0.2-0.3,0.2-0.6,0.2h-4.7c-0.2,0-0.4-0.1-0.5-0.2c-0.1-0.1-0.2-0.3-0.2-0.6
		c0-0.2,0.1-0.4,0.2-0.5C100.3,17.3,100.5,17.3,100.7,17.3z M102.1,14.8h3.4c0.3,0,0.5,0.1,0.6,0.2c0.1,0.1,0.2,0.3,0.2,0.6
		c0,0.2,0,0.4-0.1,0.5c-0.1,0.2-0.3,0.3-0.6,0.3h-3.4c-0.3,0-0.4-0.1-0.6-0.2c-0.1-0.1-0.2-0.3-0.2-0.5s0.1-0.5,0.2-0.6
		C101.7,14.8,101.9,14.8,102.1,14.8z M113.5,26.7c-0.3-0.3-0.6-0.7-0.9-1c-0.3-0.3-0.5-0.6-0.5-0.8h-6.5l-1,2.5
		C107.8,27.3,110.8,27.1,113.5,26.7z M110.9,14.8h3.6c0.3,0,0.5,0.1,0.6,0.2c0.1,0.1,0.2,0.3,0.2,0.6c0,0.2,0,0.4-0.1,0.5
		c-0.1,0.2-0.3,0.3-0.6,0.3h-3.6c-0.3,0-0.4-0.1-0.6-0.2c-0.1-0.1-0.2-0.3-0.2-0.5s0.1-0.5,0.2-0.6
		C110.4,14.8,110.6,14.8,110.9,14.8z M111,17.3h4.9c0.3,0,0.4,0.1,0.5,0.2c0.1,0.1,0.2,0.3,0.2,0.5c0,0.2-0.1,0.4-0.2,0.5
		c-0.1,0.2-0.3,0.2-0.6,0.2H111c-0.3,0-0.4-0.1-0.6-0.2c-0.1-0.1-0.2-0.3-0.2-0.6c0-0.2,0.1-0.4,0.2-0.5
		C110.5,17.3,110.7,17.3,111,17.3z"/>
	<path class="st0" d="M126.8,12.9c0.4,0,0.8,0.1,0.9,0.3c0.2,0.2,0.3,0.5,0.3,0.8v0.9h3c0.3,0,0.5,0.1,0.6,0.2
		c0.1,0.1,0.2,0.3,0.2,0.6c0,0.2,0,0.4-0.1,0.5c-0.1,0.2-0.3,0.3-0.6,0.3h-0.8l-0.5,1.5h1.8c0.2,0,0.4,0.1,0.5,0.2
		c0.1,0.1,0.2,0.3,0.2,0.6s0,0.5-0.1,0.6c-0.1,0.2-0.3,0.3-0.6,0.3h-9.7c-0.2,0-0.4-0.1-0.5-0.2c-0.1-0.1-0.2-0.3-0.2-0.6
		c0-0.3,0.1-0.5,0.2-0.6c0.1-0.1,0.3-0.2,0.5-0.2h2l-0.3-1.5h-1.3c-0.2,0-0.4-0.1-0.5-0.2c-0.1-0.1-0.2-0.3-0.2-0.6
		c0-0.2,0.1-0.4,0.2-0.6c0.1-0.1,0.3-0.2,0.5-0.2h3.2V14c0-0.3,0.1-0.6,0.3-0.8C126,12.9,126.3,12.9,126.8,12.9z M131.4,8.7
		c0.5,0,0.8,0.1,1,0.3c0.3,0.2,0.4,0.5,0.4,0.9v0.4h7c1.2,0,1.7,0.5,1.7,1.6V13c0,0.4-0.1,0.7-0.3,0.9c-0.2,0.2-0.6,0.3-1,0.3
		c-0.5,0-0.9-0.1-1.1-0.4c-0.1-0.2-0.2-0.5-0.2-0.8v-0.4c0-0.2-0.1-0.3-0.4-0.3h-14.1c-0.2,0-0.3,0.1-0.3,0.3v0.8
		c0,0.4-0.1,0.7-0.3,0.9c-0.2,0.2-0.5,0.3-1,0.3c-0.5,0-0.8-0.1-1-0.3c-0.2-0.2-0.3-0.5-0.3-0.9v-1.5c0-1.1,0.6-1.6,1.7-1.6h6.6V9.9
		c0-0.3,0.1-0.6,0.4-0.9C130.6,8.8,130.9,8.7,131.4,8.7z M123.4,20.3h6.5c0.9,0,1.4,0.4,1.4,1.1v7.3c0,0.5-0.1,0.8-0.3,1
		c-0.2,0.3-0.7,0.4-1.5,0.4c-0.5,0-1,0-1.5,0c-0.3,0-0.5-0.1-0.6-0.2c-0.4-0.1-0.6-0.4-0.6-0.9c0-0.5,0.2-0.7,0.7-0.7
		c0.5,0,1,0.1,1.3,0.1c0.1,0,0.2-0.1,0.2-0.3v-1.1h-4.5v2.3c0,0.3-0.1,0.5-0.2,0.6c-0.2,0.2-0.5,0.3-1,0.3c-0.4,0-0.7-0.1-0.9-0.3
		c-0.1-0.1-0.2-0.4-0.2-0.7v-7.8C122.2,20.6,122.6,20.3,123.4,20.3z M124.5,22.9h4.5v-0.6c0-0.2-0.1-0.4-0.3-0.4h-3.9
		c-0.2,0-0.3,0.1-0.3,0.4V22.9z M124.5,25.4h4.5v-1h-4.5V25.4z M125.9,17.9h1.8l0.5-1.5h-2.6L125.9,17.9z M135,15.8
		c0,0.5,0.1,0.8,0.2,0.8h5.2c0.5,0,0.7,0.4,0.7,1.3v1.7c0,0.7-0.2,1-0.7,1h-5.1c-0.3,0-0.4,0.2-0.4,0.6v0.3h5.7c0.2,0,0.4,0,0.5,0.1
		c0.1,0.1,0.2,0.3,0.2,0.5c0,0.2,0,0.4-0.1,0.5c-0.1,0.2-0.3,0.3-0.5,0.3h-5.7v0.7h5.7c0.2,0,0.4,0,0.5,0.1c0.1,0.1,0.2,0.3,0.2,0.5
		c0,0.2,0,0.4-0.1,0.5c-0.1,0.2-0.3,0.3-0.5,0.3h-5.7v0.8h5.7c0.2,0,0.4,0.1,0.5,0.2c0.1,0.1,0.2,0.2,0.2,0.5c0,0.1,0,0.2,0,0.3h0
		c0.3,0,0.6,0.1,0.8,0.3c0.2,0.2,0.3,0.4,0.3,0.7c0,0.8-0.2,1.4-0.6,1.7c-0.4,0.4-0.9,0.6-1.8,0.6h-6.5c-0.6,0-0.9-0.7-0.9-2.2V21
		c0-1.3,0.4-1.9,1.2-1.9h5v-1h-5.1c-0.7,0-1-0.7-1-2V14c0-0.3,0.1-0.5,0.3-0.6c0.2-0.1,0.5-0.2,0.9-0.2c0.5,0,0.8,0.1,0.9,0.2
		c0.2,0.1,0.3,0.4,0.3,0.6v0.4h6c0.3,0,0.4,0,0.5,0.1c0.1,0.1,0.2,0.3,0.2,0.6c0,0.2,0,0.4-0.1,0.5c-0.1,0.2-0.3,0.2-0.6,0.2H135z
		 M140,27.1h-5.1v0.6c0,0.3,0.1,0.5,0.3,0.5h2.7c0.7,0,1.2,0,1.5-0.1c0.4-0.1,0.5-0.4,0.5-0.9C139.9,27.2,139.9,27.2,140,27.1z"/>
	<path class="st0" d="M146.1,10.7c0.3,0,0.6,0.1,0.8,0.2c0.2,0.2,0.3,0.4,0.3,0.8c0,0.5-0.1,1.1-0.2,1.7h1.3V10
		c0-0.3,0.1-0.6,0.3-0.8c0.2-0.2,0.4-0.3,0.8-0.3c0.4,0,0.7,0.1,0.9,0.3c0.2,0.2,0.3,0.5,0.3,0.8v3.3h1.2c0.4,0,0.7,0.1,0.9,0.3
		c0.1,0.1,0.2,0.3,0.3,0.5c0.3-0.5,0.6-1.1,0.8-1.6c0.5-1.1,0.8-2,0.9-2.8c0.1-0.6,0.4-0.9,0.9-0.9c0.3,0,0.6,0,0.8,0.1
		c0.4,0.2,0.6,0.5,0.6,1c0,0.4-0.1,0.9-0.3,1.6c0,0.1-0.1,0.2-0.1,0.4h6.2c1.6,0,2.4,0.9,2.4,2.6c0,6.4-0.1,10.4-0.4,12
		c-0.1,1.2-0.4,2-1,2.4c-0.6,0.6-1.6,0.9-2.9,0.9c-1.4,0-2.5-0.2-3.3-0.6c-0.4-0.2-0.7-0.6-0.7-1.3c0-0.3,0.2-0.6,0.4-0.8
		c0.2-0.2,0.4-0.3,0.7-0.3c0.1,0,0.2,0,0.3,0c0.9,0.3,1.7,0.4,2.5,0.4c1-0.1,1.5-0.6,1.6-1.5c0.1-1.2,0.2-3.6,0.3-7.2
		c-0.8,1.7-1.6,3.1-2.5,4.2c-1.6,2.2-3.2,3.9-4.9,5.1c-0.6,0.4-1,0.6-1.3,0.6c-0.3,0-0.6-0.1-0.8-0.3c-0.2-0.2-0.3-0.5-0.3-0.8
		c0-0.3,0.2-0.6,0.5-0.8c2.1-1.8,3.9-3.7,5.3-5.7c1.4-1.9,2.6-4.2,3.6-6.8c-0.1,0-0.2,0-0.3,0h-1.9c-0.4,1.7-1,3.3-1.9,4.7
		c-1,1.6-2.1,2.8-3.1,3.5c-0.4,0.4-0.9,0.5-1.4,0.5c-0.3,0-0.5-0.1-0.8-0.3c-0.2-0.2-0.3-0.4-0.3-0.6c0-0.3,0.1-0.6,0.3-0.8
		c1.5-1.3,2.5-2.4,3.2-3.4c0.8-1.2,1.4-2.4,1.7-3.6h-2.3c-0.5,1.1-1.1,1.9-1.6,2.4c-0.2,0.3-0.6,0.4-1,0.4c-0.2,0-0.5-0.1-0.7-0.2
		c-0.3-0.1-0.5-0.4-0.5-0.8c0-0.1,0-0.2,0-0.3h-1.3v3.5c0.2-0.1,0.3-0.2,0.5-0.2c0.3-0.1,0.4-0.2,0.5-0.2c0.4,0,0.8,0.2,1.1,0.5
		c0.2,0.3,0.3,0.6,0.3,0.9c0,0.2-0.1,0.5-0.4,0.7c-0.5,0.3-1.2,0.7-1.9,1.1V29c0,0.3-0.1,0.5-0.3,0.7c-0.2,0.3-0.5,0.4-1,0.4
		c-0.4,0-0.6-0.1-0.8-0.4c-0.2-0.2-0.3-0.4-0.3-0.7v-5.7c-0.4,0.2-0.7,0.4-1.1,0.5c-0.8,0.4-1.4,0.6-1.7,0.6c-0.4,0-0.6-0.2-0.8-0.5
		c-0.2-0.3-0.3-0.6-0.3-0.9c0-0.2,0.2-0.5,0.5-0.8c0.4-0.2,1.6-0.8,3.4-1.8v-4.7h-1.7c-0.2,1-0.4,1.9-0.5,2.6
		c-0.2,0.4-0.5,0.5-1,0.5c-0.3,0-0.5-0.1-0.8-0.3c-0.1-0.2-0.2-0.4-0.2-0.7c0-0.1,0-0.4,0.1-0.7c0.4-1.9,0.8-3.8,1-5.9
		C145.4,10.9,145.7,10.7,146.1,10.7z"/>
	<path class="st0" d="M174.4,16.2h-3.6v13c0,0.5-0.4,0.8-1.1,0.8c-0.7,0-1.1-0.3-1.1-0.8V10.3c0-0.7,0.4-1.1,1.1-1.1h6.5
		c0.8,0,1.2,0.3,1.2,1v4.6c0,0.9-0.4,1.3-1.2,1.3h-0.8c0.2,0.1,0.3,0.3,0.3,0.5c0,0.1-0.1,0.3-0.2,0.5c-0.2,0.3-0.5,0.7-1,1.1
		c0.2,0.2,0.5,0.4,0.7,0.6c0.3-0.4,0.5-0.7,0.8-1.1c0.2-0.3,0.5-0.4,0.8-0.4c0.2,0,0.4,0,0.6,0.1c0.3,0.1,0.4,0.3,0.4,0.6
		c0,0.1-0.1,0.2-0.1,0.3c-0.6,0.9-1.5,1.8-2.6,2.9l1.7-0.2c0-0.1-0.1-0.2-0.1-0.3c-0.1-0.2-0.1-0.3-0.1-0.4c0-0.2,0.1-0.3,0.3-0.5
		c0.2-0.1,0.3-0.2,0.5-0.2s0.4,0.1,0.5,0.3c0.3,0.5,0.5,0.9,0.7,1.3h0.1l0.5,0c0.4-0.4,0.9-0.8,1.2-1.2c-0.6-0.5-1.2-1-1.9-1.6
		c-0.2-0.2-0.3-0.5-0.3-0.7c0-0.2,0.1-0.4,0.3-0.5c0.2-0.2,0.4-0.3,0.6-0.3c0.3,0,0.6,0.1,0.9,0.2c0,0,0.1,0,0.1,0
		c0.3-0.3,0.5-0.6,0.7-0.9c0.1-0.1,0.1-0.2,0.2-0.3h-0.1c-0.8,0-1.2-0.4-1.2-1.2v-4.4c0-0.9,0.4-1.4,1.1-1.4h6.5
		c1,0,1.4,0.5,1.4,1.4v17.1c0,0.8-0.1,1.4-0.3,1.7c-0.3,0.4-0.7,0.6-1.4,0.6c-1.2,0-2-0.1-2.4-0.4c-0.3-0.2-0.5-0.4-0.6-0.8
		c0-0.4,0.1-0.8,0.3-1c0.2-0.2,0.5-0.3,0.9-0.3c0.1,0,0.2,0,0.3,0.1c0.3,0.1,0.5,0.1,0.8,0.1c0.2,0,0.3-0.1,0.3-0.4v-11h-4.5
		c0.2,0.1,0.3,0.3,0.3,0.5c0,0.1-0.1,0.3-0.2,0.5c-0.2,0.3-0.6,0.6-1,1c0.2,0.2,0.4,0.4,0.6,0.7c0.3-0.4,0.6-0.8,0.9-1.2
		c0.2-0.3,0.5-0.4,0.8-0.4c0.2,0,0.4,0,0.6,0.1c0.3,0.1,0.4,0.3,0.4,0.6c0,0.1-0.1,0.3-0.2,0.3c-0.6,0.9-1.5,1.9-2.7,3l1.8-0.2
		c-0.1-0.2-0.1-0.3-0.2-0.4c-0.1-0.2-0.1-0.3-0.1-0.4c0-0.2,0.1-0.4,0.2-0.5c0.2-0.1,0.3-0.2,0.5-0.2c0.2,0,0.4,0.1,0.6,0.3
		c0.3,0.8,0.6,1.5,0.9,2.3c0.1,0.2,0.1,0.3,0.1,0.5c0,0.2-0.1,0.4-0.2,0.5c-0.1,0.1-0.3,0.2-0.5,0.2c-0.3,0-0.5-0.1-0.6-0.4
		c-0.1-0.2-0.1-0.4-0.2-0.5h0l-4.8,0.5c0,0.1-0.1,0.1-0.1,0.2c-0.1,0.1-0.3,0.2-0.5,0.2c-0.3,0-0.5-0.1-0.7-0.4
		c0-0.2-0.1-0.3-0.2-0.5l-5,0.7c-0.3,0-0.5-0.1-0.6-0.2c-0.1-0.1-0.2-0.3-0.2-0.5c0-0.2,0-0.4,0.1-0.5c0.1-0.2,0.3-0.2,0.5-0.2
		l0.6-0.1c0.5-0.4,0.9-0.8,1.3-1.3c-0.5-0.4-1.2-0.9-1.8-1.3c-0.2-0.2-0.4-0.5-0.4-0.7c0-0.3,0.1-0.5,0.3-0.6
		c0.2-0.2,0.3-0.2,0.5-0.2c0.3,0,0.5,0,0.7,0.1c0.3-0.3,0.6-0.7,0.8-1.1C174.2,16.3,174.3,16.3,174.4,16.2z M170.8,12h4.2v-1.2h-4.2
		V12z M170.8,14.5h4.2v-1.1h-4.2V14.5z M173.4,23.5c0.6,0,0.9,0.3,0.9,0.8v0.6c0,0.2,0.1,0.4,0.3,0.4h1.5c0-0.4,0.1-0.8,0.1-1.2
		c0-0.3,0.1-0.5,0.2-0.7c0.2-0.1,0.4-0.2,0.7-0.2c0.3,0,0.5,0.1,0.7,0.2c0.2,0.1,0.2,0.4,0.3,0.6c0,0.5,0,0.9-0.1,1.3
		c-0.1,0.6-0.2,1.1-0.4,1.6c-0.3,0.9-0.8,1.6-1.6,2.2c-0.4,0.4-0.9,0.6-1.5,0.6c-0.4,0-0.7-0.1-0.9-0.3c-0.2-0.2-0.2-0.3-0.2-0.5
		c0-0.3,0.1-0.5,0.2-0.6c0.8-0.4,1.4-0.8,1.8-1.2h-1.7c-0.8,0-1.3-0.4-1.3-1.3v-1.3C172.5,23.7,172.8,23.5,173.4,23.5z M180.2,23.3
		c0.4,0,0.6,0.1,0.7,0.2c0.2,0.2,0.3,0.4,0.3,0.8v1.1h1.2c0.1,0,0.2,0,0.2-0.1v-1.1c0-0.4,0.3-0.7,0.9-0.7s0.9,0.2,0.9,0.7v1.8
		c0,0.7-0.4,1-1.1,1h-2.1v1.7c0,0.3-0.1,0.5-0.2,0.7c-0.2,0.2-0.4,0.3-0.8,0.3c-0.4,0-0.6-0.1-0.8-0.3c-0.1-0.1-0.2-0.3-0.2-0.7
		v-4.5c0-0.3,0.1-0.5,0.2-0.7C179.5,23.4,179.8,23.3,180.2,23.3z M181.7,12h4.6v-1c0-0.1-0.1-0.2-0.3-0.2h-4.1
		c-0.1,0-0.2,0.1-0.2,0.2V12z M186.3,14.5v-1.1h-4.6v0.9c0,0.1,0.1,0.2,0.2,0.2H186.3z"/>
	<path class="st0" d="M193.1,13.3c0.4,0,0.7,0.1,0.9,0.2c0,0,0,0,0,0V9.9c0-0.3,0.1-0.6,0.3-0.8c0.2-0.2,0.4-0.3,0.8-0.3
		c0.4,0,0.7,0.1,0.9,0.3s0.3,0.5,0.3,0.8v2.9c0.1,0,0.3-0.1,0.4-0.1c0.2,0,0.4,0.1,0.6,0.3c0.3,0.4,0.6,1.2,1.1,2.6
		c0,0.1,0.1,0.3,0.1,0.4v-2c0-0.8,0.4-1.2,1.2-1.2h10.6c0.8,0,1.2,0.4,1.2,1.2v2.7c0,0.8-0.4,1.2-1.2,1.2h-10.6
		c-0.4,0-0.7-0.1-0.9-0.3v0.1c0,0.2-0.1,0.4-0.2,0.6c-0.2,0.2-0.4,0.3-0.7,0.3c-0.2,0-0.4,0-0.5-0.1c-0.1,0-0.2-0.1-0.3-0.3
		c-0.2-0.7-0.5-1.5-0.8-2.6V29c0,0.3-0.1,0.5-0.2,0.7c-0.2,0.3-0.5,0.4-1,0.4c-0.3,0-0.6-0.1-0.8-0.4c-0.2-0.2-0.3-0.4-0.3-0.7V16.9
		c-0.3,1.9-0.7,3.3-0.9,4c-0.2,0.4-0.5,0.5-1,0.5c-0.3,0-0.5-0.1-0.8-0.3c-0.2-0.2-0.3-0.4-0.3-0.6c0-0.1,0.1-0.4,0.2-0.9
		c0.5-1.8,0.8-3.7,1.1-5.7C192.5,13.5,192.8,13.3,193.1,13.3z M204.8,18c0.4,0,0.7,0.1,0.9,0.3c0.2,0.2,0.3,0.5,0.3,0.9v3
		c0,0,0.1,0.1,0.1,0.1c0.1,0.1,0.2,0.3,0.4,0.6c0.4,0.7,1,1.5,1.6,2.2c0.7-0.6,1.2-1.1,1.7-1.8c0.1-0.1,0.2-0.2,0.2-0.2
		c0.2-0.1,0.4-0.2,0.6-0.2c0.2,0,0.4,0.1,0.5,0.1c0.3,0.2,0.5,0.4,0.5,0.8c0,0.2-0.1,0.4-0.2,0.5c-0.1,0.3-0.5,0.8-1.2,1.4
		c-0.3,0.2-0.5,0.4-0.7,0.6c0.5,0.4,0.9,0.7,1.3,0.9c0.7,0.4,1,0.6,1.2,0.7c0.3,0.2,0.4,0.4,0.4,0.7c0,0.3-0.1,0.6-0.3,0.8
		c-0.2,0.2-0.5,0.3-0.8,0.4c-0.2,0-0.5-0.1-0.8-0.2c-1.1-0.4-2.2-1.3-3.4-2.5c-0.9-0.9-1.6-2-2.3-3.1c-0.1-0.2-0.2-0.4-0.3-0.5
		c-0.1,0.1-0.1,0.1-0.2,0.1c-0.6,0.4-1.2,0.8-1.8,1.1v2.8c1.2-0.2,2.4-0.3,3.6-0.5c0.2,0,0.4,0.1,0.5,0.3c0.1,0.2,0.2,0.4,0.2,0.7
		c0,0.3-0.1,0.5-0.2,0.6c-0.1,0.1-0.3,0.2-0.6,0.3c-2.5,0.5-4.9,0.8-7.1,0.9c-0.3,0-0.5-0.1-0.7-0.2c-0.2-0.2-0.2-0.4-0.3-0.7
		c0-0.3,0.1-0.5,0.2-0.6c0.2-0.2,0.4-0.3,0.8-0.3c0.5,0,0.9-0.1,1.4-0.2v-2c-0.5,0.2-1,0.4-1.5,0.5c-0.4,0.1-0.8,0.2-1.2,0.2
		c-0.4,0-0.7-0.1-0.9-0.4c-0.2-0.2-0.3-0.5-0.3-0.8c0-0.3,0.2-0.5,0.4-0.7c1.1-0.3,2.4-0.8,3.7-1.3c1.3-0.6,2.2-1,2.8-1.3v-3
		c0-0.4,0.1-0.7,0.3-0.9C204.2,18.1,204.5,18,204.8,18z M204.7,8.6c0.5,0,0.8,0.1,1,0.2c0.3,0.2,0.4,0.5,0.4,0.9v0.3h5.5
		c0.3,0,0.6,0.1,0.7,0.2c0.1,0.1,0.2,0.4,0.2,0.7c0,0.3-0.1,0.6-0.2,0.7c-0.2,0.2-0.4,0.3-0.8,0.3h-13c-0.3,0-0.6-0.1-0.7-0.2
		c-0.1-0.1-0.2-0.4-0.2-0.8c0-0.3,0.1-0.5,0.2-0.7c0.2-0.1,0.4-0.2,0.7-0.2h4.9V9.7c0-0.3,0.1-0.6,0.3-0.9
		C203.9,8.7,204.2,8.6,204.7,8.6z M198.5,18.5h3.5c0.3,0,0.4,0.1,0.5,0.2c0.1,0.1,0.2,0.3,0.2,0.7c0,0.3,0,0.4-0.1,0.5
		c-0.1,0.2-0.3,0.3-0.6,0.3h-3.5c-0.2,0-0.4-0.1-0.5-0.2c-0.1-0.1-0.2-0.3-0.2-0.6c0-0.3,0.1-0.6,0.2-0.7
		C198.1,18.6,198.3,18.5,198.5,18.5z M198.5,21h3.5c0.3,0,0.4,0.1,0.5,0.2c0.1,0.1,0.2,0.3,0.2,0.6c0,0.3,0,0.5-0.1,0.6
		c-0.1,0.2-0.3,0.3-0.6,0.3h-3.5c-0.2,0-0.4-0.1-0.5-0.2c-0.1-0.1-0.2-0.3-0.2-0.6s0.1-0.5,0.2-0.7C198.1,21.1,198.3,21,198.5,21z
		 M202.2,16v-1.5H201c-0.2,0-0.3,0.1-0.3,0.3v0.8c0,0.2,0.1,0.4,0.3,0.4H202.2z M205.6,16v-1.5h-1.4V16H205.6z M207.6,18.5h3.7
		c0.2,0,0.4,0.1,0.5,0.2c0.1,0.1,0.2,0.3,0.2,0.7c0,0.3,0,0.4-0.1,0.5c-0.1,0.2-0.3,0.3-0.6,0.3h-3.7c-0.2,0-0.4-0.1-0.5-0.2
		c-0.1-0.1-0.2-0.3-0.2-0.6c0-0.3,0.1-0.6,0.2-0.7C207.1,18.6,207.3,18.5,207.6,18.5z M207.6,21h3.7c0.2,0,0.4,0.1,0.5,0.2
		c0.1,0.1,0.2,0.3,0.2,0.6c0,0.3,0,0.5-0.1,0.6c-0.1,0.2-0.3,0.3-0.6,0.3h-3.7c-0.2,0-0.4-0.1-0.5-0.2c-0.1-0.1-0.2-0.3-0.2-0.6
		s0.1-0.5,0.2-0.7C207.1,21.1,207.3,21,207.6,21z M209,16c0.3,0,0.4-0.1,0.4-0.4v-0.8c0-0.2-0.1-0.3-0.4-0.3h-1.4V16H209z"/>
</g>
<g>
	<path class="st0" d="M68.9,34.5h1.4l2.4,5.6h0l2.4-5.6h1.4v7.1h-1.2v-4.9h0l-2.1,4.9h-1l-2.1-4.9h0v4.9h-1.2V34.5z"/>
	<path class="st0" d="M81.9,37.2c0.4,0.5,0.6,1.3,0.6,2.2h-3.9c0,0.5,0.2,0.9,0.4,1.1c0.2,0.3,0.5,0.4,0.9,0.4
		c0.3,0,0.6-0.1,0.9-0.2c0.2-0.1,0.3-0.3,0.5-0.6h1.1c-0.1,0.5-0.4,0.9-0.7,1.2c-0.5,0.4-1,0.6-1.7,0.6c-0.8,0-1.4-0.2-1.8-0.7
		c-0.5-0.5-0.7-1.2-0.7-2c0-0.8,0.2-1.4,0.7-1.9c0.4-0.5,1-0.8,1.8-0.8C80.8,36.4,81.5,36.7,81.9,37.2z M79.1,37.6
		c-0.2,0.2-0.3,0.5-0.4,0.9h2.7c-0.1-0.8-0.6-1.2-1.4-1.2C79.6,37.3,79.3,37.4,79.1,37.6z"/>
	<path class="st0" d="M87.7,37.1c0.5,0.5,0.7,1.2,0.7,2c0,0.8-0.2,1.4-0.7,1.9c-0.5,0.5-1.1,0.8-1.9,0.8S84.4,41.6,84,41
		c-0.5-0.5-0.7-1.1-0.7-1.9c0-0.8,0.2-1.5,0.7-2c0.5-0.5,1.1-0.8,1.9-0.8C86.6,36.4,87.3,36.6,87.7,37.1z M84.8,37.9
		c-0.2,0.3-0.3,0.7-0.3,1.2c0,0.5,0.1,0.9,0.3,1.2c0.3,0.4,0.6,0.6,1.1,0.6c0.5,0,0.8-0.2,1.1-0.6c0.2-0.3,0.3-0.8,0.3-1.2
		c0-0.5-0.1-0.9-0.3-1.2c-0.3-0.4-0.6-0.6-1.1-0.6S85,37.5,84.8,37.9z"/>
	<path class="st0" d="M88.9,36.5h1.3l1,3.8l1-3.8h1.1l1,3.8l1-3.8h1.3l-1.7,5.2h-1.1l-1-3.8l-1,3.8h-1.1L88.9,36.5z"/>
	<path class="st0" d="M96.7,34.5H98l1.3,5.4h0l1.4-5.4h1.2l1.4,5.4h0l1.3-5.4h1.3l-2.1,7.1h-1.2l-1.4-5.4h0l-1.4,5.4h-1.2L96.7,34.5
		z"/>
	<path class="st0" d="M110.8,36.9c0.3,0.3,0.5,0.8,0.5,1.4v3.3h-1.1V41c-0.2,0.2-0.4,0.4-0.7,0.6c-0.3,0.2-0.7,0.2-1.2,0.2
		c-0.5,0-1-0.1-1.3-0.4c-0.3-0.3-0.5-0.6-0.5-1.1c0-0.6,0.2-1,0.7-1.3c0.4-0.3,1-0.5,1.8-0.5l1.1,0v-0.2c0-0.7-0.4-1-1.1-1
		c-0.3,0-0.6,0.1-0.8,0.2c-0.2,0.1-0.4,0.3-0.4,0.6l-1.1-0.1c0.1-0.6,0.4-1,0.8-1.2c0.4-0.2,0.9-0.3,1.6-0.3
		C109.9,36.4,110.4,36.6,110.8,36.9z M110.1,39.3l-1,0c-0.9,0-1.4,0.3-1.4,1c0,0.2,0.1,0.3,0.2,0.5c0.2,0.1,0.4,0.2,0.6,0.2
		c0.4,0,0.8-0.1,1.1-0.4c0.3-0.3,0.5-0.6,0.5-1V39.3z"/>
	<path class="st0" d="M117.1,38.5v3.2h-1.1v-3.1c0-0.8-0.4-1.3-1.2-1.3c-0.3,0-0.5,0.1-0.7,0.3c-0.2,0.2-0.4,0.5-0.4,0.9v3.1h-1.1
		v-5.2h1.1v0.6c0.2-0.2,0.4-0.4,0.7-0.5c0.3-0.1,0.5-0.2,0.9-0.2C116.4,36.4,117.1,37.1,117.1,38.5z"/>
	<path class="st0" d="M122,37.1v-0.6h1.1v4.8c0,1.6-0.8,2.5-2.4,2.5c-0.7,0-1.3-0.1-1.7-0.4c-0.4-0.3-0.6-0.7-0.7-1.3h1.1
		c0.1,0.3,0.2,0.5,0.4,0.6c0.2,0.1,0.5,0.2,0.9,0.2c0.9,0,1.3-0.5,1.3-1.4v-0.8c-0.4,0.5-0.9,0.8-1.5,0.8c-0.7,0-1.3-0.2-1.7-0.7
		c-0.4-0.5-0.6-1.1-0.6-1.9c0-0.8,0.2-1.4,0.6-1.9c0.4-0.5,1-0.7,1.7-0.7C121.1,36.4,121.6,36.6,122,37.1z M119.6,37.7
		c-0.2,0.3-0.4,0.7-0.4,1.2c0,0.5,0.1,0.9,0.3,1.2c0.2,0.3,0.6,0.5,1.1,0.5c0.4,0,0.8-0.1,1-0.4c0.2-0.3,0.3-0.7,0.3-1.2
		c0-0.5-0.1-0.9-0.3-1.2c-0.2-0.3-0.6-0.4-1-0.4C120.2,37.3,119.9,37.4,119.6,37.7z"/>
	<path class="st0" d="M132.9,35.1c0.5,0.4,0.8,1,0.9,1.7h-1.1c-0.1-0.5-0.3-0.8-0.7-1c-0.3-0.2-0.7-0.3-1.2-0.3
		c-0.8,0-1.3,0.3-1.7,0.8c-0.3,0.5-0.5,1.1-0.5,1.9c0,0.8,0.2,1.5,0.5,1.9c0.4,0.5,0.9,0.7,1.7,0.7c0.5,0,0.9-0.1,1.2-0.4
		c0.3-0.3,0.6-0.7,0.7-1.2h1.1c-0.2,0.8-0.5,1.5-1.1,2c-0.5,0.4-1.2,0.7-2,0.7c-1.2,0-2.1-0.4-2.7-1.1c-0.5-0.6-0.8-1.5-0.8-2.6
		c0-1.1,0.3-1.9,0.8-2.6c0.6-0.8,1.5-1.1,2.6-1.1C131.7,34.4,132.4,34.6,132.9,35.1z"/>
	<path class="st0" d="M135.1,34.4h1.1v7.3h-1.1V34.4z"/>
	<path class="st0" d="M141.8,37.1c0.5,0.5,0.7,1.2,0.7,2c0,0.8-0.2,1.4-0.7,1.9c-0.5,0.5-1.1,0.8-1.9,0.8c-0.8,0-1.4-0.3-1.9-0.8
		c-0.5-0.5-0.7-1.1-0.7-1.9c0-0.8,0.2-1.5,0.7-2c0.5-0.5,1.1-0.8,1.9-0.8C140.7,36.4,141.3,36.6,141.8,37.1z M138.8,37.9
		c-0.2,0.3-0.3,0.7-0.3,1.2c0,0.5,0.1,0.9,0.3,1.2c0.3,0.4,0.6,0.6,1.1,0.6s0.8-0.2,1.1-0.6c0.2-0.3,0.3-0.8,0.3-1.2
		c0-0.5-0.1-0.9-0.3-1.2c-0.3-0.4-0.6-0.6-1.1-0.6C139.4,37.3,139,37.5,138.8,37.9z"/>
	<path class="st0" d="M143.5,36.5h1.1v3.2c0,0.4,0.1,0.7,0.3,0.9c0.2,0.2,0.5,0.3,0.9,0.3c0.2,0,0.5-0.1,0.7-0.3
		c0.2-0.2,0.4-0.5,0.5-0.9v-3.2h1.1v5.2H147V41c-0.4,0.5-1,0.8-1.6,0.8c-1.2,0-1.9-0.7-1.9-2.1V36.5z"/>
	<path class="st0" d="M153,34.4h1.1v7.3h-1.1v-0.5c-0.4,0.5-0.9,0.7-1.6,0.7c-0.8,0-1.4-0.3-1.8-0.8c-0.4-0.5-0.6-1.1-0.6-1.9
		c0-0.8,0.2-1.4,0.6-1.9c0.4-0.5,1-0.8,1.8-0.8c0.6,0,1.1,0.3,1.5,0.8V34.4z M150.6,37.8c-0.2,0.3-0.3,0.7-0.3,1.3
		c0,0.6,0.1,1,0.3,1.3c0.2,0.4,0.6,0.5,1.1,0.5c0.4,0,0.8-0.2,1-0.5c0.2-0.3,0.3-0.7,0.3-1.2V39c0-0.5-0.1-1-0.4-1.3
		c-0.2-0.3-0.5-0.4-0.9-0.4C151.2,37.3,150.8,37.5,150.6,37.8z"/>
	<path class="st0" d="M158.8,34.5h3c1.7,0,2.6,0.7,2.6,2.2c0,1.5-0.9,2.2-2.6,2.2h-1.8v2.7h-1.2V34.5z M159.9,35.5v2.4h1.7
		c0.5,0,0.9-0.1,1.1-0.3c0.2-0.2,0.4-0.5,0.4-0.9c0-0.4-0.1-0.7-0.4-0.9c-0.2-0.2-0.6-0.3-1.1-0.3H159.9z"/>
	<path class="st0" d="M169.4,37.2c0.4,0.5,0.6,1.3,0.6,2.2h-3.9c0,0.5,0.2,0.9,0.4,1.1c0.2,0.3,0.5,0.4,1,0.4c0.3,0,0.6-0.1,0.9-0.2
		c0.2-0.1,0.3-0.3,0.5-0.6h1.1c-0.1,0.5-0.4,0.9-0.7,1.2c-0.5,0.4-1,0.6-1.7,0.6c-0.8,0-1.4-0.2-1.8-0.7c-0.5-0.5-0.7-1.2-0.7-2
		c0-0.8,0.2-1.4,0.7-1.9c0.4-0.5,1-0.8,1.8-0.8C168.3,36.4,168.9,36.7,169.4,37.2z M166.6,37.6c-0.2,0.2-0.3,0.5-0.4,0.9h2.7
		c-0.1-0.8-0.5-1.2-1.3-1.2C167.1,37.3,166.8,37.4,166.6,37.6z"/>
	<path class="st0" d="M172.5,34.8v1.7h1.2v0.9h-1.2v2.9c0,0.1,0,0.2,0.1,0.3c0.1,0.1,0.1,0.1,0.3,0.1h0.7v0.9h-0.9
		c-0.4,0-0.8-0.1-1-0.4c-0.2-0.2-0.3-0.5-0.3-0.9v-2.9h-0.9v-0.9h0.9v-1.2L172.5,34.8z"/>
	<path class="st0" d="M183.1,35.1c0.5,0.4,0.8,1,0.9,1.7h-1.1c-0.1-0.5-0.3-0.8-0.7-1c-0.3-0.2-0.7-0.3-1.2-0.3
		c-0.8,0-1.3,0.3-1.7,0.8c-0.3,0.5-0.5,1.1-0.5,1.9c0,0.8,0.2,1.5,0.5,1.9c0.4,0.5,1,0.7,1.7,0.7c0.5,0,0.9-0.1,1.2-0.4
		c0.3-0.3,0.6-0.7,0.7-1.2h1.1c-0.2,0.8-0.5,1.5-1.1,2c-0.5,0.4-1.2,0.7-2,0.7c-1.2,0-2.1-0.4-2.7-1.1c-0.5-0.6-0.8-1.5-0.8-2.6
		c0-1.1,0.3-1.9,0.8-2.6c0.6-0.8,1.5-1.1,2.6-1.1C181.9,34.4,182.6,34.6,183.1,35.1z"/>
	<path class="st0" d="M189.2,36.9c0.3,0.3,0.5,0.8,0.5,1.4v3.3h-1.1V41c-0.2,0.2-0.4,0.4-0.7,0.6c-0.3,0.2-0.7,0.2-1.2,0.2
		c-0.5,0-1-0.1-1.3-0.4c-0.3-0.3-0.5-0.6-0.5-1.1c0-0.6,0.2-1,0.7-1.3c0.4-0.3,1-0.5,1.8-0.5l1.1,0v-0.2c0-0.7-0.4-1-1.1-1
		c-0.3,0-0.6,0.1-0.8,0.2c-0.2,0.1-0.4,0.3-0.4,0.6l-1.1-0.1c0.1-0.6,0.4-1,0.8-1.2c0.4-0.2,0.9-0.3,1.6-0.3
		C188.3,36.4,188.8,36.6,189.2,36.9z M188.5,39.3l-1.1,0c-0.9,0-1.4,0.3-1.4,1c0,0.2,0.1,0.3,0.2,0.5c0.2,0.1,0.4,0.2,0.6,0.2
		c0.4,0,0.8-0.1,1.1-0.4c0.3-0.3,0.5-0.6,0.5-1V39.3z"/>
	<path class="st0" d="M194,36.5v1.1c-0.2-0.1-0.5-0.1-0.7-0.1c-0.3,0-0.6,0.1-0.8,0.4c-0.3,0.3-0.4,0.6-0.4,1.1v2.7h-1.1v-5.2h1.1
		v0.7c0.1-0.3,0.3-0.5,0.5-0.6c0.2-0.2,0.5-0.3,0.8-0.3C193.6,36.4,193.8,36.4,194,36.5z"/>
	<path class="st0" d="M198.8,37.2c0.4,0.5,0.6,1.3,0.6,2.2h-3.9c0,0.5,0.2,0.9,0.4,1.1c0.2,0.3,0.5,0.4,1,0.4c0.3,0,0.6-0.1,0.9-0.2
		c0.2-0.1,0.3-0.3,0.5-0.6h1.1c-0.1,0.5-0.4,0.9-0.7,1.2c-0.5,0.4-1,0.6-1.7,0.6c-0.8,0-1.4-0.2-1.8-0.7c-0.5-0.5-0.7-1.2-0.7-2
		c0-0.8,0.2-1.4,0.7-1.9c0.4-0.5,1-0.8,1.8-0.8C197.7,36.4,198.3,36.7,198.8,37.2z M196,37.6c-0.2,0.2-0.3,0.5-0.4,0.9h2.7
		c-0.1-0.8-0.5-1.2-1.3-1.2C196.5,37.3,196.2,37.4,196,37.6z"/>
</g>
<g>
	<g>
		<g>
			<g>
				<path class="st1" d="M44.8,15v19.6c0,5.4-4.4,9.7-9.7,9.7H15.3c-3.3,0-6.2-1.6-7.9-4.1c-1-1.3-1.6-2.9-1.8-4.7c0-0.3,0-0.6,0-1
					V15c0-4.2,2.7-7.8,6.5-9.2c0,0,0,0,0,0c0.7-0.2,1.5-0.4,2.2-0.5c0.3,0,0.6,0,0.9,0H35c0.2,0,0.5,0,0.7,0
					c1.5,0.1,2.9,0.6,4.1,1.3c0.5,0.3,0.9,0.6,1.3,0.9C43.4,9.3,44.8,12,44.8,15z"/>
			</g>
		</g>
		<g>
			<g>
				<path class="st1" d="M17.7,35.4c-0.1,0.5-0.2,0.9-0.4,1.4c-0.3,0.6-0.8,1.1-1.3,1.5c-0.8,0.7-1.7,1.3-2.7,1.6
					c-1.1,0.4-2.3,0.5-3.5,0.5c-0.8,0-1.6-0.1-2.4-0.2c-1-1.3-1.6-2.9-1.8-4.7c0-0.3,0-0.6,0-1V15c0-4.2,2.7-7.8,6.5-9.2l0,0
					c0,0,0,0,0,0c0.6-0.6,1.5-0.7,2.2-0.5c0.2,0.1,0.4,0.1,0.6,0.3c0.9,0.5,1.5,1.5,1.8,2.5c0.3,1,0.3,2,0.3,3.1
					c0.1,2.8,0.1,5.7,0.2,8.5c0,0.9,0,1.9,0,2.8c0,1-0.2,2-0.1,3c0,1.3,0.3,2.5,0.5,3.8C18,31.3,18,33.4,17.7,35.4z"/>
			</g>
		</g>
		<g class="st2">
			<g>
				<path class="st3" d="M41.2,8c-0.4-0.3-0.8-0.6-1.3-0.8c-1.2-0.7-2.6-1.1-4.1-1.2c-0.2,0-0.5,0-0.7,0H15.3C10,5.9,5.6,10,5.6,15
					v1.4c0-5,4.4-9.1,9.7-9.1H35c0.2,0,0.5,0,0.7,0c1.5,0.1,2.9,0.5,4.1,1.2c0.5,0.2,0.9,0.5,1.3,0.8c2.2,1.7,3.6,4.2,3.6,7V15
					C44.8,12.2,43.4,9.6,41.2,8z"/>
			</g>
		</g>
		<g>
			<g>
				<path class="st3" d="M44.8,14.9v10.3l-14.3-1.5c-4.7-8-0.4-16.2,5.2-18.5c1.5,0.1,2.9,0.6,4.1,1.3c0.5,0.3,0.9,0.6,1.3,0.9
					C43.4,9.1,44.8,11.9,44.8,14.9z"/>
			</g>
		</g>
		<g>
			<g>
				<path class="st3" d="M30.8,19.4c-0.4,0.8-0.7,1.8-0.9,2.7c0,0.2-0.2,0.4-0.5,0.5c-0.4,0.1-0.9,0.2-1.3,0.3
					c-0.1,0-0.2,0.1-0.3,0.1c-0.2-0.7-0.6-1.2-1.2-1.7c-0.3-0.3-0.5-0.7-0.5-1.1C26.3,17.8,29.3,17.4,30.8,19.4z"/>
			</g>
		</g>
		<g>
			<g>
				<path class="st4" d="M39.8,24.9c0,0.2-0.1,0.4-0.1,0.6v9.4c-4,1.3-7.7,0.6-10.2-1.3c-0.6-0.4-1.1-0.9-1.6-1.5
					c-1.6-2-2.2-4.6-1.9-6.8c0.1-0.5,0.3-1,0.6-1.5c0.3-0.4,0.7-0.7,1.2-0.9c0.1,0,0.2-0.1,0.3-0.1c0.4-0.1,0.9-0.2,1.3-0.3
					c0.2,0,0.4-0.2,0.5-0.5c0.2-1,0.5-1.9,0.9-2.7c0.1-0.2,0.2-0.4,0.3-0.6c0.1-0.3,0.5-0.3,0.7-0.1c0.8,0.9,1.5,1.8,1.9,2.9
					c0.1,0.3,0.4,0.6,0.8,0.7c0.6,0.2,1.1,0.4,1.7,0.6C37.4,23.4,38.6,24.1,39.8,24.9z"/>
			</g>
		</g>
		<g class="st2">
			<g>
				<g>
					<path class="st3" d="M36.2,22.8c-0.6-0.2-1.1-0.5-1.7-0.6c-0.3-0.1-0.6-0.4-0.8-0.7c-0.4-1-1.1-2-1.9-2.9
						c-0.2-0.2-0.6-0.2-0.7,0.1c-0.1,0.2-0.2,0.3-0.3,0.5c0.2,0,0.3,0,0.5,0.1c0.8,0.9,1.5,1.8,1.9,2.9c0.1,0.3,0.4,0.6,0.8,0.7
						c0.6,0.2,1.1,0.4,1.7,0.6c1.2,0.5,2.4,1.2,3.6,2.1c0,0.2-0.1,0.4-0.1,0.6v8.8c0.2,0,0.3-0.1,0.5-0.2v-9.4c0-0.2,0-0.4,0.1-0.6
						C38.6,24.1,37.4,23.4,36.2,22.8z"/>
				</g>
			</g>
		</g>
		<g class="st5">
			<g>
				<g>
					<path class="st0" d="M39.9,25C39.9,25,39.9,25,39.9,25C39.9,25,39.9,25,39.9,25L39.9,25z"/>
				</g>
			</g>
			<g>
				<g>
					<path class="st0" d="M30.9,32.3c-0.7-0.3-1.3-0.7-1.8-1.1c-1.7-1.4-2.8-3.5-3-5.4c-0.2,1.9,0.5,4.1,2,5.8c0.5,0.5,1,1,1.6,1.4
						c2.5,1.7,6.2,2.4,10.2,1.2v-1.6C36.6,33.7,33.4,33.5,30.9,32.3z"/>
				</g>
			</g>
			<g>
				<g>
					<path class="st0" d="M33.1,20.8c0.1,0.1,0.2,0.3,0.4,0.4c-0.4-0.7-0.9-1.3-1.5-1.9c-0.1-0.1-0.2-0.1-0.4-0.1
						C32.1,19.6,32.7,20.2,33.1,20.8z"/>
				</g>
			</g>
		</g>
		<g>
			<g>
				<path class="st4" d="M44.8,23.1v11.5c0,1.6-0.4,3.1-1.1,4.5c-1.6,3.1-4.9,5.2-8.6,5.2H15.3c-0.1,0-0.3,0-0.4,0
					c-4.3-0.2-7.9-3.1-9-7.1c-0.1-0.5-0.3-1.1-0.3-1.7c0-0.3,0-0.6,0-1v-8.7c0.4-0.7,1-1.1,1.6-1.2c1.2-0.2,2.3,0.8,2.3,2v5.9
					c3.6-0.6,6.4,0.9,7,4.9c0.8,0.3,1.4-1.4,1.4-4.8c0-1.4,0-3.1-0.2-5.1c2,3.6,5.8,4.4,9.3,3.2c0.2,0.4,0.5,0.8,0.8,1.2
					c0.2,0.3,0.5,0.5,0.7,0.8c0.3,0.3,0.6,0.5,0.9,0.7c2.5,1.9,6.2,2.6,10.2,1.3v-9.4c0-0.2,0-0.4,0.1-0.6c0.4-1.9,2.4-3,4.3-2.2
					c0,0,0.1,0,0.1,0.1C44.4,22.9,44.6,23,44.8,23.1z"/>
			</g>
		</g>
		<g>
			<g>
				<path class="st3" d="M5.6,28.9c0.7,0.4,1.6,0.6,2.4,0.5c0.4,0,0.9-0.1,1.2-0.4c0.1-0.1,0.2-0.2,0.2-0.4c0-0.1,0-0.2,0-0.3
					c0-0.5,0.1-1.1,0.1-1.6S9.4,25.6,9,25.3c-0.3-0.3-0.7-0.4-1.1-0.5c-0.6-0.1-1.3,0-1.6,0.5c-0.1,0.1-0.1,0.3-0.2,0.4
					c-0.3,1.1-0.4,2.2-0.3,3.3"/>
			</g>
		</g>
		<g>
			<g>
				<path class="st3" d="M39.6,27.6c1.4,0.9,3.2,0.7,4.7,0.1c0.1,0,0.2-0.1,0.3-0.2c0-0.1,0-0.2,0.1-0.2c0.1-1.1,0.2-2.1,0.2-3.2
					c0-0.2,0-0.4,0-0.6c-0.1-0.4-0.5-0.7-1-0.8c-0.9-0.3-1.9-0.1-2.7,0.5c-0.8,0.6-1.3,1.5-1.3,2.4c0,0.7,0.2,1.5,0,2.1"/>
			</g>
		</g>
		<g>
			<g>
				<path class="st0" d="M43.4,10c0.1,1.3-0.1,2.4-0.9,3.2c-2.8,0.5-5.9-1.6-7.3-4.4c-0.1-0.2-0.1-0.3,0-0.5c0.8-1.5,2-2.4,3.6-2.5
					C40.9,6.9,42.4,8.2,43.4,10z"/>
			</g>
		</g>
		<g>
			<g>
				<path class="st6" d="M41.7,21.9c1.3-1.3,2.2-2.9,2.7-4.6c0.4,1.8,0.5,3.6,0.1,5.4c-0.4-0.1-0.8-0.2-1.2-0.3
					c-0.2,0-0.4-0.1-0.6-0.1c-0.5,0-1,0.3-1.4,0.1c0.1-0.1,0.2-0.3,0.3-0.3"/>
			</g>
		</g>
		<g class="st5">
			<g>
				<g>
					<path class="st0" d="M41.7,21.9c1.3-1.3,2.2-2.9,2.7-4.6c0.4,1.8,0.5,3.6,0.1,5.4c-0.4-0.1-0.8-0.2-1.2-0.3
						c-0.2,0-0.4-0.1-0.6-0.1c-0.5,0-1,0.3-1.4,0.1c0.1-0.1,0.2-0.3,0.3-0.3"/>
				</g>
			</g>
		</g>
		<g class="st7">
			<g>
				<path class="st3" d="M40.3,6.8c-0.3,0.3-0.6,0.5-1,0.8c-1,0.6-2.1,0.8-2.3,0.4c-0.2-0.4,0.5-1.1,1.5-1.7C38.7,6.2,38.8,6.1,39,6
					C39.5,6.3,39.9,6.5,40.3,6.8z"/>
			</g>
		</g>
		<g>
			<g>
				<path class="st0" d="M35,44.9H15.3c-2.6,0-5-1-6.9-2.7c-1.9-1.7-3.1-4.1-3.3-6.6c0-0.3,0-0.7,0-1V14.9C5,9.2,9.7,4.6,15.3,4.6
					H35c0.3,0,0.5,0,0.8,0c1.6,0.1,3,0.6,4.4,1.4c0.5,0.3,0.9,0.6,1.4,1c2.4,2,3.8,4.9,3.8,8v19.7C45.3,40.3,40.7,44.9,35,44.9z
					 M15.3,5.7c-5.1,0-9.2,4.1-9.2,9.2v19.7c0,0.3,0,0.6,0,0.9c0.5,4.7,4.4,8.3,9.1,8.3H35c5.1,0,9.2-4.1,9.2-9.2V14.9
					c0-2.8-1.2-5.3-3.4-7.1C40.5,7.5,40,7.2,39.6,7c-1.2-0.7-2.5-1.1-3.9-1.2c-0.2,0-0.5,0-0.7,0H15.3z"/>
			</g>
		</g>
		<g>
			<g>
				<path class="st0" d="M35,44.8H15.3c-2.6,0-5-0.9-6.9-2.7c-1.9-1.7-3-4-3.3-6.6c0-0.3,0-0.7,0-1v-8.7c0-0.1,0-0.2,0.1-0.2
					c0.4-0.8,1.1-1.3,2-1.4c0.7-0.1,1.4,0.1,2,0.6c0.6,0.5,0.9,1.2,0.9,2v5.3c1.8-0.2,3.4,0.2,4.6,1c1.1,0.8,1.8,2,2.2,3.6
					c0.1-0.3,0.3-0.9,0.5-2.1c0.2-1.8,0.2-4.2-0.1-6.9c0-0.2,0.1-0.5,0.3-0.5c0.2-0.1,0.5,0,0.6,0.2c2,3.7,5.8,3.9,8.8,3
					c0.2-0.1,0.5,0,0.6,0.2c0.2,0.4,0.5,0.8,0.8,1.1c0,0,0,0,0,0c0.4,0.5,0.9,1,1.5,1.4c0,0,0,0,0,0c2.5,1.9,6,2.4,9.4,1.3v-9
					c0-0.3,0-0.5,0.1-0.7c0.2-1.1,0.9-2,1.9-2.5c1-0.5,2.1-0.5,3.1-0.1c0,0,0.1,0,0.2,0.1c0.2,0.1,0.4,0.2,0.6,0.4
					c0.1,0.1,0.2,0.2,0.2,0.4v11.5C45.3,40.2,40.7,44.8,35,44.8z M6.1,26.1v8.5c0,0.3,0,0.6,0,0.9c0.5,4.7,4.4,8.3,9.2,8.3H35
					c5.1,0,9.2-4.1,9.2-9.2V23.4c-0.1-0.1-0.2-0.1-0.3-0.1c0,0-0.1,0-0.1-0.1c-0.7-0.3-1.5-0.3-2.2,0.1c-0.7,0.4-1.2,1-1.4,1.8
					c0,0.2-0.1,0.4-0.1,0.5v9.4c0,0.2-0.1,0.4-0.3,0.5c-3.9,1.3-7.8,0.8-10.7-1.4c-0.6-0.4-1.2-1-1.7-1.6c-0.2-0.3-0.5-0.6-0.7-0.9
					c-1.8,0.5-3.6,0.5-5.2,0.1c-1.3-0.4-2.4-1.1-3.3-2.1c0.3,4.6-0.1,7.7-1.1,8.4c-0.3,0.2-0.6,0.3-0.9,0.2
					c-0.2-0.1-0.3-0.2-0.3-0.4c-0.2-1.7-0.9-2.9-1.9-3.7c-1.1-0.8-2.7-1.1-4.5-0.8c-0.1,0-0.3,0-0.4-0.1c-0.1-0.1-0.2-0.2-0.2-0.4
					v-5.9c0-0.5-0.2-0.9-0.6-1.2c-0.3-0.3-0.8-0.4-1.2-0.3C6.8,25.3,6.4,25.6,6.1,26.1z"/>
			</g>
		</g>
		<g>
			<g>
				<path class="st0" d="M29.5,34.1c-0.1,0-0.2,0-0.3-0.1c-0.6-0.4-1.2-1-1.7-1.6c-0.2-0.2-0.1-0.5,0.1-0.7c0.2-0.2,0.5-0.1,0.7,0.1
					c0.4,0.5,1,1,1.5,1.4c0.2,0.2,0.3,0.5,0.1,0.7C29.8,34,29.7,34.1,29.5,34.1z"/>
			</g>
		</g>
		<g>
			<g>
				<path class="st0" d="M40.2,33.6c0.1,1.2,0,2.5-0.7,3.6c-0.2,0.4-0.5,0.7-0.8,0.9c-0.1,0.1-0.1,0.1-0.2,0c0-0.1,0-0.1,0-0.2
					c0.2-0.3,0.4-0.6,0.5-1c0.4-1.1,0.3-2.2,0.2-3.3C39.2,32.9,40.2,32.9,40.2,33.6L40.2,33.6z"/>
			</g>
		</g>
		<g>
			<g>
				<path class="st0" d="M7.1,24.7c0.2,0.7,0.1,1.5-0.1,2.2c0,0.1-0.2,0.1-0.2,0c0.1-0.7-0.1-1.3-0.4-1.9C6.3,24.5,7,24.2,7.1,24.7
					L7.1,24.7z"/>
			</g>
		</g>
		<g>
			<g>
				<path class="st0" d="M8.3,24.7c0.2,0.7,0.1,1.5-0.1,2.2C8.2,27,8,27,8,26.9C8,26.2,7.9,25.6,7.6,25C7.4,24.5,8.2,24.2,8.3,24.7
					L8.3,24.7z"/>
			</g>
		</g>
		<g>
			<g>
				<path class="st0" d="M41.9,22.7c0.2,0.9,0.2,1.9-0.1,2.7c0,0.1-0.2,0.1-0.2,0c0.1-0.8-0.1-1.7-0.5-2.4
					C40.8,22.4,41.8,22,41.9,22.7L41.9,22.7z"/>
			</g>
		</g>
		<g>
			<g>
				<path class="st0" d="M43.6,22.4c0.1,0.4,0.1,0.9,0.1,1.3c0,0.4-0.1,0.9-0.2,1.3c0,0.1-0.1,0.1-0.2,0.1c-0.1,0-0.1-0.1-0.1-0.1
					c0-0.4,0-0.8-0.1-1.2c-0.1-0.4-0.2-0.7-0.4-1.1C42.6,22.1,43.4,21.8,43.6,22.4L43.6,22.4z"/>
			</g>
		</g>
		<g>
			<g>
				<path class="st0" d="M16.4,35.3c0.3,1.2,0.6,2.4,0.3,3.7c-0.1,0.4-0.2,0.8-0.4,1.1c0,0.1-0.1,0.1-0.2,0C16,40.1,16,40.1,16,40
					c0.1-0.7,0.1-1.3,0.1-1.9c0-0.3-0.1-0.7-0.2-1.1c-0.1-0.5-0.3-1-0.3-1.5C15.5,35,16.2,34.8,16.4,35.3L16.4,35.3z"/>
			</g>
		</g>
		<g>
			<g>
				<path class="st0" d="M20.7,31.2c-3.3-1.3-4.6-5.3-3.4-8.5c0.4-1,1-2,1.8-2.7c0.1-0.1,0.1-0.1,0.2,0c0,0,0,0.1,0,0.2
					c-0.3,0.4-0.6,0.8-0.8,1.3c-1.6,3.1-0.8,7.3,2.6,8.7C21.7,30.6,21.3,31.5,20.7,31.2L20.7,31.2z"/>
			</g>
		</g>
		<g>
			<g>
				<ellipse transform="matrix(0.62 -0.7846 0.7846 0.62 -10.9893 36.3624)" class="st3" cx="32" cy="29.5" rx="1.9" ry="2.9"/>
			</g>
		</g>
		<g>
			<g>
				<path class="st0" d="M35.7,36.1c-2.4,0-4.6-0.7-6.5-2.1c-0.6-0.4-1.2-1-1.7-1.6c-1.6-2-2.4-4.7-2-7.2c0.1-0.6,0.3-1.2,0.7-1.7
					c0.4-0.4,0.8-0.8,1.3-1c0.1,0,0.2-0.1,0.3-0.1c0.5-0.2,0.9-0.3,1.4-0.3c0,0,0.1,0,0.1-0.1c0.2-1,0.5-2,1-2.9
					c0.1-0.2,0.2-0.4,0.3-0.7c0.1-0.3,0.4-0.4,0.7-0.5c0.3,0,0.6,0.1,0.8,0.3c0.9,1,1.6,2,2,3c0.1,0.2,0.2,0.3,0.5,0.4
					c0.6,0.2,1.2,0.4,1.7,0.6c1.2,0.5,2.4,1.2,3.7,2.1c0.2,0.1,0.2,0.3,0.2,0.5c0,0.2-0.1,0.4-0.1,0.5v9.4c0,0.2-0.1,0.4-0.3,0.5
					C38.5,35.9,37.1,36.1,35.7,36.1z M31.5,19c-0.1,0.2-0.2,0.4-0.3,0.5c-0.4,0.8-0.7,1.7-0.9,2.6c-0.1,0.4-0.4,0.8-0.9,0.9
					c-0.4,0.1-0.8,0.2-1.3,0.3c-0.1,0-0.1,0.1-0.2,0.1c-0.4,0.2-0.7,0.4-1,0.7c-0.3,0.4-0.5,0.8-0.5,1.2c-0.3,2.2,0.4,4.7,1.8,6.4
					c0.4,0.5,0.9,1,1.5,1.4c0,0,0,0,0,0c2.5,1.9,6,2.4,9.4,1.3v-9c0-0.1,0-0.3,0-0.4c-1.1-0.8-2.2-1.4-3.3-1.8
					c-0.6-0.2-1.1-0.4-1.6-0.6c-0.5-0.2-0.9-0.5-1.1-1C32.9,20.8,32.3,20,31.5,19z"/>
			</g>
		</g>
		<g>
			<g>
				<path class="st0" d="M27.8,23.4c-0.1,0-0.1,0-0.2,0c-0.1-0.1-0.2-0.1-0.2-0.3c-0.2-0.6-0.5-1.1-1-1.5c-0.5-0.4-0.7-0.9-0.7-1.5
					c0.1-1.2,0.8-2.1,1.8-2.4c1.3-0.4,2.7,0.1,3.6,1.3c0.1,0.1,0.1,0.3,0.1,0.5c-0.4,0.8-0.7,1.7-0.9,2.6c-0.1,0.4-0.4,0.8-0.9,0.8
					c-0.4,0.1-0.8,0.2-1.3,0.3c-0.1,0-0.1,0.1-0.2,0.1C27.9,23.4,27.8,23.4,27.8,23.4z M28.4,18.6c-0.2,0-0.4,0-0.6,0.1
					c-0.7,0.2-1.1,0.8-1.2,1.6c0,0.3,0.1,0.5,0.3,0.7c0.5,0.4,0.9,0.9,1.1,1.5c0.4-0.1,0.8-0.2,1.3-0.3c0.1,0,0.1,0,0.1-0.1
					c0.2-0.9,0.5-1.8,0.8-2.6C29.7,18.8,29,18.6,28.4,18.6z"/>
			</g>
		</g>
		<g>
			<g>
				<path class="st0" d="M26.2,19.3c0.4,0,0.8,0.1,1.2,0.2c0.4,0.2,0.7,0.4,0.9,0.7c0,0,0,0.1,0,0.2c0,0-0.1,0-0.1,0
					c-0.3-0.2-0.6-0.3-0.9-0.4c-0.3-0.1-0.7,0-1,0.1C25.7,20.2,25.6,19.4,26.2,19.3L26.2,19.3z"/>
			</g>
		</g>
		<g>
			<g>
				<path class="st0" d="M27.6,17.9c0.7,0.2,1.3,0.7,1.6,1.3c0,0.1,0,0.2-0.1,0.2c-0.1,0-0.1,0-0.2,0c-0.4-0.5-0.9-0.7-1.5-0.7
					C26.8,18.6,27,17.7,27.6,17.9L27.6,17.9z"/>
			</g>
		</g>
		<g>
			<g>
				<path class="st0" d="M30.1,25.1c0.3-0.8,1.2-1.3,2-0.9c0.8,0.4,1.1,1.4,0.5,2.1c0,0.1-0.1,0.1-0.2,0c0,0-0.1-0.1,0-0.1
					c0.2-0.6,0-1.2-0.5-1.4c-0.6-0.3-1.1,0-1.5,0.5C30.3,25.3,30.1,25.2,30.1,25.1L30.1,25.1z"/>
			</g>
		</g>
		<g>
			<g>
				<path class="st0" d="M37.5,29.7c0.2-0.6,0.2-1.3-0.3-1.6c-0.6-0.4-1.1-0.1-1.5,0.4c-0.1,0.1-0.3,0-0.2-0.1
					c0.1-0.4,0.4-0.7,0.8-0.9c0.6-0.3,1.4,0.1,1.7,0.7c0.3,0.6,0.1,1.3-0.2,1.8C37.6,30,37.4,29.8,37.5,29.7L37.5,29.7z"/>
			</g>
		</g>
		<g>
			<g>
				<g>
					<path class="st0" d="M30.9,28.3c-0.2,0.2-0.4,0.4-0.3,0.7c0,0,0,0.1,0,0.1c0.2,0.4,0.8,0.4,1.2,0.3l0.3-0.1c0,0.3,0,0.7,0.1,1
						c0.1,0.3,0.3,0.5,0.6,0.6c0.3,0,0.5-0.3,0.7-0.5c0-0.1,0.1-0.1,0.2-0.1c0.1,0,0.1,0.1,0.1,0.2c0,0.1-0.1,0.3-0.2,0.4
						c-0.2,0.3-0.7,0.6-1.1,0.4c-0.2-0.1-0.4-0.2-0.5-0.3c-0.4-0.4-0.5-0.9-0.4-1.4c0,0,0.3,0.2,0.3,0.2C31.7,30,31.4,30,31.1,30
						c-0.3,0-0.6-0.2-0.8-0.4c-0.2-0.2-0.3-0.6-0.2-0.9c0.1-0.2,0.2-0.4,0.4-0.5c0.1-0.1,0.3-0.2,0.4,0C31,28.2,31,28.3,30.9,28.3
						L30.9,28.3z"/>
				</g>
			</g>
		</g>
		<g>
			<g>
				<path class="st0" d="M32.6,28.9c-0.2,0.3-0.5,0.6-0.5,0.9c-0.1,0.3-0.6,0.2-0.4-0.2c0.1-0.3,0.3-0.5,0.6-0.7
					c0.1-0.1,0.2-0.1,0.2-0.2c0.1,0,0.1,0,0.2,0C32.6,28.8,32.6,28.8,32.6,28.9L32.6,28.9z"/>
			</g>
		</g>
		<g>
			<g>
				<g>
					<path class="st0" d="M34,29.3c-0.2,0.2-1.3,0-1.7-0.4c-0.4-0.4-0.6-1.1-0.5-1.4c0.1-0.3,0.7-0.3,1.6,0.5
						C34.1,28.6,34.3,29.1,34,29.3z"/>
				</g>
			</g>
		</g>
		<g class="st7">
			<g>
				<path class="st3" d="M33.3,28.4c0,0.1-0.4,0-0.6-0.1c-0.1-0.1-0.5-0.4-0.4-0.5c0.1-0.1,0.2-0.1,0.6,0.1
					C33.3,28.2,33.4,28.3,33.3,28.4z"/>
			</g>
		</g>
		<g>
			<g>
				<path class="st0" d="M38.7,24.7c-0.2,0-0.4-0.1-0.5-0.3c-0.1-0.3,0-0.5,0.3-0.6c3.3-1.2,5.7-5.5,5.7-10.2c0-0.3,0.2-0.5,0.5-0.5
					c0.3,0,0.5,0.2,0.5,0.5c0,2.5-0.6,5-1.7,7c-1.1,2-2.8,3.5-4.6,4.1C38.8,24.7,38.7,24.7,38.7,24.7z"/>
			</g>
		</g>
		<g>
			<g>
				<path class="st0" d="M42.6,21.4c-0.1,0-0.2,0-0.3-0.1c-0.2-0.2-0.3-0.5-0.1-0.7c1.3-2,1-5.1,0-6.9c-0.1-0.2,0-0.5,0.2-0.7
					c0.2-0.1,0.5,0,0.7,0.2c1.1,2.1,1.5,5.6,0,7.9C42.9,21.3,42.7,21.4,42.6,21.4z"/>
			</g>
		</g>
		<g>
			<g>
				<path class="st0" d="M41.8,13.8c-2.7,0-5.6-1.9-7-4.7c-0.1-0.3-0.1-0.7,0-0.9c0.9-1.7,2.3-2.6,4-2.7c0.1,0,0.2,0,0.2,0
					c2.1,0.9,3.7,2.4,4.8,4.3c0,0.1,0.1,0.1,0.1,0.2c0.1,1.5-0.2,2.7-1,3.6c-0.1,0.1-0.2,0.1-0.3,0.2C42.4,13.8,42.1,13.8,41.8,13.8
					z M38.8,6.4c-1.3,0.1-2.3,0.8-3.1,2.2c0,0,0,0,0,0c1.3,2.6,4.2,4.4,6.6,4.1c0.5-0.7,0.7-1.5,0.6-2.6C42,8.5,40.6,7.3,38.8,6.4z"
					/>
			</g>
		</g>
		<g>
			<g>
				<path class="st0" d="M20.9,11.8c0.1-1.5,1.6-2.8,3.1-2.7c1.6,0.1,2.9,1.4,2.9,3c0,0.2-0.2,0.3-0.3,0.1c-0.7-0.9-1.5-1.7-2.7-1.7
					c-1.1-0.1-2.1,0.6-2.8,1.5C21.1,12.1,20.9,12,20.9,11.8L20.9,11.8z"/>
			</g>
		</g>
		<g class="st5">
			<g>
				<g>
					<path class="st0" d="M35,41.3H15.3c-0.1,0-0.3,0-0.4,0c-4.3-0.2-7.9-3-9-6.7c-0.1-0.5-0.3-1-0.3-1.6c0-0.3,0-0.6,0-0.9v2.1
						c0,0.3,0,0.6,0,0.9c0.1,0.5,0.2,1.1,0.3,1.6c1.1,3.8,4.7,6.5,9,6.7c0.1,0,0.3,0,0.4,0H35c3.8,0,7-2,8.6-5
						c0.7-1.3,1.1-2.7,1.1-4.2v-2.1c0,1.5-0.4,3-1.1,4.2C42,39.3,38.8,41.3,35,41.3z"/>
				</g>
			</g>
			<g>
				<g>
					<path class="st0" d="M18,30.4c0-0.7,0-1.5,0-2.4c-0.1-0.1-0.1-0.2-0.2-0.3c0.1,1.1,0.2,2.1,0.2,3C18,30.7,18,30.5,18,30.4z"/>
				</g>
			</g>
		</g>
		<g>
			<g>
				<path class="st0" d="M13.6,4.9c2-0.1,3.2,0.9,3.7,2.8c0.4,1.5,0.3,3,0.2,4.6c0,1-0.1,2-0.2,3c0,0.1-0.1,0.1-0.1,0.1
					c-0.1,0-0.1-0.1-0.1-0.1c-0.1-1-0.1-2-0.1-3c-0.1-1.5-0.1-2.9-0.6-4.3c-0.2-0.8-0.7-1.6-1.5-1.9c-0.4-0.2-0.8-0.2-1.3-0.3
					C13.1,5.7,13.1,4.9,13.6,4.9L13.6,4.9z"/>
			</g>
		</g>
		<g class="st5">
			<g>
				<g>
					<path class="st0" d="M17.9,34.3c1.4-1.3,3.3-1.9,5.2-2c1.9-0.1,3.8,0.2,5.6,0.8c-0.5-0.6-1-1.2-1.5-1.8
						c-0.1-0.1-0.2-0.2-0.3-0.2c-0.1,0-0.2,0-0.4,0c-2,0.6-4.2,0.6-5.9-0.6c-0.3-0.2-0.6-0.4-0.9-0.7c-0.7-0.6-1.5-1.3-2.2-1.9
						c0.1,0.6,0.2,1.2,0.3,1.8c0.1,0.4,0.1,0.9,0.2,1.3c0,1-0.3,2-0.1,3"/>
				</g>
			</g>
		</g>
	</g>
	<g>
		<g>
			<path class="st0" d="M35,4.6c0.3,0,0.5,0,0.8,0c1.6,0.1,3,0.6,4.4,1.4c0.5,0.3,0.9,0.6,1.4,1c2.4,2,3.8,4.9,3.8,8v19.7
				c0,5.7-4.6,10.3-10.3,10.3H15.3c-2.6,0-5-1-6.9-2.7c-1.9-1.7-3.1-4.1-3.3-6.6c0-0.3,0-0.7,0-1V14.9C5,9.2,9.7,4.6,15.3,4.6H35
				 M35,4.1H15.3c-6,0-10.8,4.9-10.8,10.8v19.7c0,0.4,0,0.7,0.1,1.1c0.3,2.7,1.5,5.1,3.5,6.9c2,1.8,4.6,2.8,7.3,2.8H35
				c6,0,10.8-4.9,10.8-10.8V14.9c0-3.3-1.4-6.3-4-8.4c-0.5-0.4-0.9-0.7-1.4-1c-1.4-0.8-3-1.3-4.6-1.4C35.6,4.1,35.3,4.1,35,4.1
				L35,4.1z"/>
		</g>
	</g>
</g>
</svg>
