<svg width="61" height="62" viewBox="0 0 61 62" fill="none" xmlns="http://www.w3.org/2000/svg">
<path d="M9.58167 18.9147C9.58167 17.8096 10.0207 16.7498 10.8021 15.9684C11.5835 15.187 12.6433 14.748 13.7483 14.748H47.0817C48.1867 14.748 49.2465 15.187 50.0279 15.9684C50.8093 16.7498 51.2483 17.8096 51.2483 18.9147V43.9147C51.2483 45.0198 50.8093 46.0796 50.0279 46.861C49.2465 47.6424 48.1867 48.0814 47.0817 48.0814H13.7483C12.6433 48.0814 11.5835 47.6424 10.8021 46.861C10.0207 46.0796 9.58167 45.0198 9.58167 43.9147V18.9147ZM16.9129 18.9147L30.415 30.7293L43.9171 18.9147H16.915H16.9129ZM47.0817 21.6835L31.7879 35.0668C31.408 35.3997 30.9201 35.5832 30.415 35.5832C29.9099 35.5832 29.422 35.3997 29.0421 35.0668L13.7483 21.6835V43.9147H47.0817V21.6835Z" fill="#789577"/>
</svg>
