<svg width="61" height="62" viewBox="0 0 61 62" fill="none" xmlns="http://www.w3.org/2000/svg">
<path d="M30.4151 10.582C21.2256 10.582 13.7485 18.0591 13.7485 27.2383C13.6881 40.6654 28.5735 51.4133 29.2068 51.8612C29.5594 52.113 29.9819 52.2484 30.4151 52.2484C30.8484 52.2484 31.2709 52.113 31.6235 51.8612C32.2568 51.4133 47.1422 40.6654 47.0818 27.2487C47.0818 18.0591 39.6047 10.582 30.4151 10.582ZM30.4151 47.5299C27.0589 44.8049 17.8714 36.5008 17.9151 27.2487C17.9151 20.3549 23.5214 14.7487 30.4151 14.7487C37.3089 14.7487 42.9151 20.3549 42.9151 27.2591C42.9589 36.5029 33.7735 44.807 30.4151 47.5299Z" fill="#789577"/>
<path d="M28.3318 30.5521L23.5547 25.7751L20.6089 28.7209L28.3318 36.4438L40.2214 24.5542L37.2756 21.6084L28.3318 30.5521Z" fill="#789577"/>
</svg>
