<svg width="61" height="62" viewBox="0 0 61 62" fill="none" xmlns="http://www.w3.org/2000/svg">
<g clip-path="url(#clip0_1708_21743)">
<path d="M16.8338 10.565C16.6493 10.3277 16.4165 10.1323 16.1507 9.99194C15.8849 9.85154 15.5923 9.7693 15.2923 9.75068C14.9923 9.73206 14.6918 9.77748 14.4107 9.88394C14.1296 9.99039 13.8743 10.1554 13.6619 10.3681L10.4307 13.6025C8.9213 15.115 8.36505 17.2556 9.02442 19.1337C11.7611 26.9074 16.2128 33.9653 22.0494 39.7837C27.8679 45.6202 34.9258 50.0719 42.6994 52.8087C44.5775 53.4681 46.7182 52.9119 48.2307 51.4025L51.4619 48.1712C51.6746 47.9588 51.8396 47.7036 51.9461 47.4225C52.0525 47.1414 52.098 46.8409 52.0794 46.5409C52.0607 46.2409 51.9785 45.9483 51.8381 45.6825C51.6977 45.4167 51.5024 45.1838 51.265 44.9994L44.0557 39.3931C43.8021 39.1965 43.5073 39.06 43.1933 38.9939C42.8793 38.9279 42.5544 38.934 42.2432 39.0119L35.3994 40.7212C34.4859 40.9496 33.5289 40.9374 32.6214 40.6861C31.714 40.4347 30.8871 39.9527 30.2213 39.2869L22.5463 31.6087C21.8799 30.9432 21.3973 30.1165 21.1454 29.209C20.8935 28.3016 20.8809 27.3444 21.1088 26.4306L22.8213 19.5869C22.8991 19.2756 22.9053 18.9507 22.8392 18.6367C22.7732 18.3228 22.6367 18.0279 22.44 17.7744L16.8338 10.565ZM11.3025 8.01186C11.8494 7.46483 12.5064 7.04039 13.2299 6.76674C13.9533 6.49308 14.7267 6.37647 15.4987 6.42465C16.2707 6.47283 17.0236 6.68469 17.7075 7.04616C18.3913 7.40764 18.9904 7.91046 19.465 8.52123L25.0713 15.7275C26.0994 17.0494 26.4619 18.7712 26.0557 20.3962L24.3463 27.24C24.2579 27.5945 24.2627 27.9657 24.3602 28.3178C24.4576 28.6699 24.6445 28.9908 24.9025 29.2494L32.5807 36.9275C32.8395 37.1861 33.161 37.3732 33.5136 37.4707C33.8663 37.5682 34.2382 37.5727 34.5932 37.4837L41.4338 35.7744C42.2357 35.5739 43.0727 35.5583 43.8815 35.7288C44.6904 35.8994 45.4498 36.2515 46.1025 36.7587L53.3088 42.365C55.8994 44.3806 56.1369 48.2087 53.8182 50.5244L50.5869 53.7556C48.2744 56.0681 44.8182 57.0837 41.5963 55.9494C33.35 53.0479 25.8628 48.327 19.69 42.1369C13.5003 35.965 8.77945 28.4789 5.87755 20.2337C4.7463 17.015 5.76192 13.5556 8.07442 11.2431L11.3057 8.01186H11.3025Z" fill="#789577"/>
</g>
<defs>
<clipPath id="clip0_1708_21743">
<rect width="50" height="50" fill="white" transform="translate(5.41504 6.41504)"/>
</clipPath>
</defs>
</svg>
